<svg xmlns="http://www.w3.org/2000/svg" xmlns:xlink="http://www.w3.org/1999/xlink" width="500" zoomAndPan="magnify" viewBox="0 0 375 374.999991" height="500" preserveAspectRatio="xMidYMid meet" version="1.0"><path fill="#ffffff" d="M 187.839844 373.6875 C 184.78125 373.6875 181.722656 373.613281 178.667969 373.464844 C 175.613281 373.3125 172.5625 373.089844 169.519531 372.789062 C 166.472656 372.488281 163.4375 372.117188 160.414062 371.667969 C 157.386719 371.21875 154.375 370.695312 151.375 370.097656 C 148.375 369.5 145.390625 368.832031 142.421875 368.089844 C 139.457031 367.34375 136.507812 366.527344 133.582031 365.640625 C 130.65625 364.753906 127.75 363.792969 124.871094 362.761719 C 121.992188 361.734375 119.136719 360.632812 116.3125 359.460938 C 113.484375 358.292969 110.691406 357.050781 107.925781 355.746094 C 105.160156 354.4375 102.429688 353.0625 99.730469 351.621094 C 97.03125 350.175781 94.371094 348.671875 91.75 347.097656 C 89.125 345.523438 86.542969 343.890625 83.996094 342.191406 C 81.453125 340.492188 78.953125 338.730469 76.496094 336.90625 C 74.039062 335.085938 71.628906 333.203125 69.265625 331.261719 C 66.902344 329.324219 64.585938 327.324219 62.320312 325.269531 C 60.050781 323.21875 57.835938 321.109375 55.675781 318.945312 C 53.511719 316.78125 51.402344 314.566406 49.347656 312.300781 C 47.292969 310.035156 45.296875 307.71875 43.355469 305.355469 C 41.414062 302.988281 39.535156 300.578125 37.710938 298.121094 C 35.890625 295.664062 34.128906 293.164062 32.429688 290.621094 C 30.730469 288.078125 29.09375 285.496094 27.523438 282.871094 C 25.949219 280.246094 24.441406 277.585938 23 274.890625 C 21.558594 272.191406 20.183594 269.460938 18.875 266.695312 C 17.566406 263.929688 16.328125 261.132812 15.15625 258.308594 C 13.988281 255.480469 12.886719 252.628906 11.855469 249.75 C 10.824219 246.867188 9.867188 243.964844 8.976562 241.039062 C 8.089844 238.109375 7.273438 235.164062 6.53125 232.195312 C 5.789062 229.230469 5.117188 226.246094 4.523438 223.246094 C 3.925781 220.246094 3.402344 217.230469 2.953125 214.207031 C 2.503906 211.179688 2.128906 208.144531 1.832031 205.101562 C 1.53125 202.058594 1.304688 199.007812 1.15625 195.953125 C 1.003906 192.898438 0.929688 189.839844 0.929688 186.78125 C 0.929688 183.722656 1.003906 180.664062 1.15625 177.609375 C 1.304688 174.554688 1.53125 171.503906 1.832031 168.460938 C 2.128906 165.417969 2.503906 162.382812 2.953125 159.355469 C 3.402344 156.332031 3.925781 153.316406 4.523438 150.316406 C 5.117188 147.316406 5.789062 144.332031 6.53125 141.367188 C 7.273438 138.398438 8.089844 135.453125 8.976562 132.523438 C 9.867188 129.597656 10.824219 126.695312 11.855469 123.8125 C 12.886719 120.933594 13.988281 118.082031 15.15625 115.253906 C 16.328125 112.429688 17.566406 109.632812 18.875 106.867188 C 20.183594 104.101562 21.558594 101.371094 23 98.671875 C 24.441406 95.976562 25.949219 93.316406 27.523438 90.691406 C 29.09375 88.066406 30.730469 85.484375 32.429688 82.941406 C 34.128906 80.398438 35.890625 77.898438 37.710938 75.441406 C 39.535156 72.984375 41.414062 70.574219 43.355469 68.207031 C 45.296875 65.84375 47.292969 63.527344 49.347656 61.261719 C 51.402344 58.996094 53.511719 56.78125 55.675781 54.617188 C 57.835938 52.453125 60.050781 50.347656 62.320312 48.292969 C 64.585938 46.238281 66.902344 44.238281 69.265625 42.300781 C 71.628906 40.359375 74.039062 38.476562 76.496094 36.65625 C 78.953125 34.832031 81.453125 33.074219 83.996094 31.371094 C 86.542969 29.671875 89.125 28.039062 91.75 26.464844 C 94.371094 24.890625 97.03125 23.386719 99.730469 21.941406 C 102.429688 20.5 105.160156 19.125 107.925781 17.820312 C 110.691406 16.511719 113.484375 15.269531 116.3125 14.101562 C 119.136719 12.929688 121.992188 11.828125 124.871094 10.800781 C 127.75 9.769531 130.65625 8.808594 133.582031 7.921875 C 136.507812 7.035156 139.457031 6.21875 142.421875 5.472656 C 145.390625 4.730469 148.375 4.0625 151.375 3.464844 C 154.375 2.867188 157.386719 2.34375 160.414062 1.894531 C 163.4375 1.449219 166.472656 1.074219 169.519531 0.773438 C 172.5625 0.472656 175.613281 0.25 178.667969 0.0976562 C 181.722656 -0.0507812 184.78125 -0.125 187.839844 -0.125 C 190.898438 -0.125 193.953125 -0.0507812 197.007812 0.0976562 C 200.066406 0.25 203.113281 0.472656 206.160156 0.773438 C 209.203125 1.074219 212.238281 1.449219 215.261719 1.894531 C 218.289062 2.34375 221.300781 2.867188 224.300781 3.464844 C 227.300781 4.0625 230.285156 4.730469 233.253906 5.472656 C 236.21875 6.21875 239.167969 7.035156 242.09375 7.921875 C 245.023438 8.808594 247.925781 9.769531 250.804688 10.800781 C 253.6875 11.828125 256.539062 12.929688 259.363281 14.101562 C 262.191406 15.269531 264.988281 16.511719 267.75 17.820312 C 270.515625 19.125 273.25 20.5 275.945312 21.941406 C 278.644531 23.386719 281.304688 24.890625 283.929688 26.464844 C 286.550781 28.039062 289.136719 29.671875 291.679688 31.371094 C 294.222656 33.074219 296.722656 34.832031 299.179688 36.65625 C 301.636719 38.476562 304.046875 40.359375 306.410156 42.300781 C 308.777344 44.238281 311.089844 46.238281 313.359375 48.292969 C 315.625 50.347656 317.839844 52.453125 320.003906 54.617188 C 322.164062 56.78125 324.273438 58.996094 326.328125 61.261719 C 328.382812 63.527344 330.378906 65.84375 332.320312 68.207031 C 334.261719 70.574219 336.140625 72.984375 337.964844 75.441406 C 339.785156 77.898438 341.546875 80.398438 343.246094 82.941406 C 344.945312 85.484375 346.582031 88.066406 348.15625 90.691406 C 349.726562 93.316406 351.234375 95.976562 352.675781 98.671875 C 354.117188 101.371094 355.492188 104.101562 356.800781 106.867188 C 358.109375 109.632812 359.347656 112.429688 360.519531 115.253906 C 361.6875 118.082031 362.789062 120.933594 363.820312 123.8125 C 364.851562 126.695312 365.808594 129.597656 366.699219 132.523438 C 367.585938 135.453125 368.402344 138.398438 369.144531 141.367188 C 369.886719 144.332031 370.558594 147.316406 371.15625 150.316406 C 371.75 153.316406 372.273438 156.332031 372.722656 159.355469 C 373.171875 162.382812 373.546875 165.417969 373.847656 168.460938 C 374.144531 171.503906 374.371094 174.554688 374.519531 177.609375 C 374.671875 180.664062 374.746094 183.722656 374.746094 186.78125 C 374.742188 189.839844 374.664062 192.894531 374.511719 195.949219 C 374.359375 199.003906 374.128906 202.050781 373.828125 205.09375 C 373.523438 208.136719 373.148438 211.171875 372.695312 214.195312 C 372.246094 217.21875 371.71875 220.230469 371.121094 223.230469 C 370.519531 226.230469 369.847656 229.210938 369.101562 232.175781 C 368.359375 235.144531 367.539062 238.089844 366.652344 241.015625 C 365.761719 243.941406 364.800781 246.84375 363.769531 249.71875 C 362.734375 252.597656 361.632812 255.449219 360.460938 258.273438 C 359.289062 261.101562 358.050781 263.894531 356.742188 266.65625 C 355.433594 269.421875 354.058594 272.152344 352.613281 274.847656 C 351.171875 277.542969 349.664062 280.203125 348.089844 282.824219 C 346.519531 285.449219 344.882812 288.03125 343.183594 290.570312 C 341.480469 293.113281 339.722656 295.613281 337.898438 298.070312 C 336.078125 300.523438 334.195312 302.933594 332.253906 305.296875 C 330.316406 307.660156 328.316406 309.976562 326.265625 312.242188 C 324.210938 314.507812 322.101562 316.722656 319.941406 318.882812 C 317.777344 321.046875 315.5625 323.152344 313.296875 325.207031 C 311.03125 327.261719 308.71875 329.257812 306.355469 331.199219 C 303.992188 333.140625 301.582031 335.019531 299.125 336.84375 C 296.671875 338.664062 294.171875 340.425781 291.628906 342.125 C 289.085938 343.824219 286.503906 345.460938 283.882812 347.035156 C 281.261719 348.605469 278.601562 350.113281 275.90625 351.558594 C 273.207031 353 270.476562 354.375 267.714844 355.683594 C 264.949219 356.992188 262.15625 358.234375 259.332031 359.40625 C 256.507812 360.578125 253.65625 361.679688 250.777344 362.710938 C 247.898438 363.742188 244.996094 364.703125 242.070312 365.59375 C 239.144531 366.484375 236.199219 367.300781 233.234375 368.046875 C 230.269531 368.792969 227.285156 369.464844 224.289062 370.0625 C 221.289062 370.664062 218.277344 371.1875 215.253906 371.640625 C 212.226562 372.089844 209.195312 372.46875 206.152344 372.769531 C 203.109375 373.074219 200.058594 373.300781 197.007812 373.453125 C 193.953125 373.609375 190.894531 373.6875 187.839844 373.6875 Z M 187.839844 12.683594 C 184.988281 12.683594 182.136719 12.753906 179.289062 12.894531 C 176.441406 13.03125 173.597656 13.242188 170.761719 13.523438 C 167.921875 13.800781 165.09375 14.152344 162.273438 14.570312 C 159.453125 14.988281 156.644531 15.476562 153.847656 16.03125 C 151.050781 16.585938 148.269531 17.210938 145.503906 17.90625 C 142.738281 18.597656 139.988281 19.359375 137.261719 20.1875 C 134.53125 21.015625 131.824219 21.90625 129.140625 22.867188 C 126.457031 23.828125 123.796875 24.855469 121.160156 25.945312 C 118.527344 27.039062 115.921875 28.191406 113.34375 29.414062 C 110.765625 30.632812 108.21875 31.914062 105.707031 33.257812 C 103.191406 34.601562 100.710938 36.007812 98.265625 37.472656 C 95.820312 38.9375 93.410156 40.464844 91.039062 42.046875 C 88.667969 43.632812 86.339844 45.273438 84.046875 46.972656 C 81.757812 48.671875 79.511719 50.425781 77.304688 52.234375 C 75.101562 54.042969 72.945312 55.90625 70.832031 57.820312 C 68.71875 59.734375 66.652344 61.699219 64.636719 63.71875 C 62.621094 65.734375 60.65625 67.796875 58.742188 69.910156 C 56.828125 72.023438 54.964844 74.183594 53.15625 76.386719 C 51.347656 78.589844 49.59375 80.839844 47.894531 83.128906 C 46.195312 85.417969 44.554688 87.75 42.96875 90.121094 C 41.386719 92.492188 39.863281 94.902344 38.394531 97.347656 C 36.929688 99.792969 35.523438 102.273438 34.179688 104.789062 C 32.835938 107.300781 31.554688 109.847656 30.335938 112.425781 C 29.117188 115.003906 27.960938 117.609375 26.871094 120.246094 C 25.78125 122.878906 24.753906 125.539062 23.792969 128.222656 C 22.832031 130.910156 21.941406 133.617188 21.113281 136.34375 C 20.285156 139.074219 19.523438 141.820312 18.832031 144.585938 C 18.140625 147.351562 17.515625 150.132812 16.957031 152.929688 C 16.402344 155.726562 15.914062 158.535156 15.496094 161.355469 C 15.078125 164.175781 14.730469 167.007812 14.449219 169.84375 C 14.171875 172.683594 13.960938 175.523438 13.824219 178.371094 C 13.683594 181.222656 13.613281 184.070312 13.613281 186.921875 C 13.613281 189.773438 13.683594 192.625 13.824219 195.472656 C 13.964844 198.320312 14.175781 201.164062 14.453125 204 C 14.734375 206.835938 15.082031 209.667969 15.5 212.488281 C 15.921875 215.308594 16.40625 218.117188 16.964844 220.914062 C 17.519531 223.710938 18.144531 226.492188 18.839844 229.257812 C 19.53125 232.023438 20.292969 234.769531 21.121094 237.5 C 21.949219 240.226562 22.84375 242.933594 23.804688 245.617188 C 24.765625 248.304688 25.789062 250.964844 26.882812 253.597656 C 27.972656 256.230469 29.128906 258.835938 30.347656 261.414062 C 31.566406 263.992188 32.851562 266.539062 34.195312 269.054688 C 35.539062 271.566406 36.945312 274.046875 38.410156 276.492188 C 39.875 278.941406 41.402344 281.347656 42.984375 283.71875 C 44.570312 286.089844 46.210938 288.417969 47.910156 290.710938 C 49.609375 293 51.363281 295.246094 53.171875 297.449219 C 54.984375 299.65625 56.84375 301.8125 58.761719 303.925781 C 60.675781 306.039062 62.640625 308.101562 64.65625 310.117188 C 66.675781 312.132812 68.738281 314.101562 70.851562 316.015625 C 72.964844 317.929688 75.125 319.792969 77.328125 321.601562 C 79.53125 323.410156 81.78125 325.160156 84.070312 326.859375 C 86.359375 328.558594 88.691406 330.199219 91.0625 331.785156 C 93.433594 333.367188 95.84375 334.890625 98.289062 336.359375 C 100.734375 337.824219 103.214844 339.226562 105.730469 340.570312 C 108.246094 341.914062 110.792969 343.195312 113.371094 344.414062 C 115.945312 345.632812 118.554688 346.789062 121.1875 347.878906 C 123.824219 348.972656 126.480469 349.996094 129.167969 350.957031 C 131.851562 351.917969 134.558594 352.8125 137.289062 353.636719 C 140.015625 354.464844 142.765625 355.226562 145.53125 355.917969 C 148.296875 356.609375 151.078125 357.234375 153.875 357.789062 C 156.671875 358.347656 159.480469 358.832031 162.300781 359.25 C 165.121094 359.667969 167.949219 360.019531 170.789062 360.296875 C 173.625 360.574219 176.46875 360.785156 179.316406 360.925781 C 182.164062 361.0625 185.015625 361.132812 187.867188 361.132812 C 190.71875 361.132812 193.566406 361.0625 196.414062 360.921875 C 199.261719 360.78125 202.105469 360.570312 204.945312 360.292969 C 207.78125 360.011719 210.609375 359.660156 213.429688 359.242188 C 216.253906 358.824219 219.0625 358.335938 221.855469 357.78125 C 224.652344 357.222656 227.433594 356.597656 230.199219 355.90625 C 232.96875 355.210938 235.714844 354.449219 238.441406 353.621094 C 241.171875 352.792969 243.878906 351.898438 246.5625 350.9375 C 249.246094 349.976562 251.90625 348.949219 254.539062 347.859375 C 257.175781 346.765625 259.78125 345.613281 262.359375 344.390625 C 264.933594 343.171875 267.480469 341.890625 269.996094 340.546875 C 272.511719 339.199219 274.992188 337.796875 277.4375 336.328125 C 279.882812 334.863281 282.289062 333.335938 284.660156 331.753906 C 287.03125 330.167969 289.359375 328.527344 291.652344 326.828125 C 293.941406 325.128906 296.1875 323.375 298.390625 321.5625 C 300.597656 319.753906 302.753906 317.890625 304.867188 315.976562 C 306.980469 314.0625 309.042969 312.09375 311.058594 310.078125 C 313.074219 308.0625 315.039062 305.996094 316.953125 303.882812 C 318.867188 301.769531 320.730469 299.613281 322.539062 297.40625 C 324.347656 295.203125 326.101562 292.957031 327.796875 290.664062 C 329.496094 288.375 331.136719 286.042969 332.722656 283.671875 C 334.304688 281.300781 335.828125 278.890625 337.296875 276.445312 C 338.761719 274 340.164062 271.519531 341.507812 269.003906 C 342.851562 266.488281 344.132812 263.941406 345.351562 261.363281 C 346.570312 258.785156 347.726562 256.179688 348.816406 253.546875 C 349.90625 250.910156 350.933594 248.25 351.890625 245.566406 C 352.851562 242.878906 353.746094 240.175781 354.574219 237.445312 C 355.398438 234.714844 356.160156 231.96875 356.851562 229.203125 C 357.542969 226.4375 358.167969 223.65625 358.722656 220.859375 C 359.277344 218.0625 359.765625 215.253906 360.183594 212.433594 C 360.601562 209.609375 360.949219 206.78125 361.226562 203.945312 C 361.507812 201.105469 361.714844 198.261719 361.855469 195.414062 C 361.996094 192.566406 362.0625 189.71875 362.0625 186.867188 C 362.058594 184.015625 361.988281 181.167969 361.84375 178.320312 C 361.699219 175.472656 361.488281 172.632812 361.203125 169.796875 C 360.921875 166.960938 360.570312 164.132812 360.148438 161.316406 C 359.730469 158.496094 359.238281 155.6875 358.679688 152.894531 C 358.121094 150.097656 357.496094 147.320312 356.800781 144.554688 C 356.105469 141.792969 355.34375 139.046875 354.511719 136.320312 C 353.683594 133.59375 352.789062 130.886719 351.824219 128.203125 C 350.863281 125.523438 349.835938 122.863281 348.742188 120.230469 C 347.652344 117.601562 346.496094 114.996094 345.273438 112.417969 C 344.054688 109.84375 342.773438 107.300781 341.425781 104.785156 C 340.082031 102.273438 338.675781 99.796875 337.210938 97.351562 C 335.746094 94.90625 334.21875 92.5 332.632812 90.132812 C 331.050781 87.761719 329.410156 85.433594 327.710938 83.144531 C 326.011719 80.855469 324.257812 78.609375 322.449219 76.40625 C 320.640625 74.207031 318.777344 72.046875 316.863281 69.9375 C 314.949219 67.824219 312.984375 65.761719 310.96875 63.746094 C 308.953125 61.730469 306.890625 59.765625 304.777344 57.851562 C 302.667969 55.941406 300.507812 54.078125 298.304688 52.269531 C 296.101562 50.460938 293.855469 48.710938 291.566406 47.011719 C 289.277344 45.3125 286.949219 43.671875 284.578125 42.089844 C 282.210938 40.503906 279.804688 38.980469 277.359375 37.515625 C 274.914062 36.046875 272.433594 34.644531 269.921875 33.300781 C 267.410156 31.953125 264.863281 30.671875 262.289062 29.453125 C 259.710938 28.234375 257.109375 27.078125 254.476562 25.988281 C 251.84375 24.894531 249.183594 23.867188 246.5 22.90625 C 243.820312 21.945312 241.113281 21.050781 238.386719 20.222656 C 235.660156 19.390625 232.914062 18.628906 230.148438 17.9375 C 227.386719 17.242188 224.605469 16.617188 221.8125 16.058594 C 219.015625 15.5 216.210938 15.011719 213.390625 14.589844 C 210.570312 14.171875 207.742188 13.820312 204.90625 13.539062 C 202.070312 13.253906 199.230469 13.042969 196.382812 12.902344 C 193.535156 12.757812 190.6875 12.6875 187.839844 12.683594 Z M 187.839844 12.683594 " fill-opacity="1" fill-rule="nonzero"/><path fill="#ffffff" d="M 270.996094 193.121094 L 104.550781 193.121094 C 104.136719 193.121094 103.722656 193.082031 103.316406 193 C 102.90625 192.917969 102.507812 192.800781 102.125 192.640625 C 101.742188 192.480469 101.375 192.285156 101.027344 192.054688 C 100.683594 191.824219 100.363281 191.558594 100.066406 191.265625 C 99.773438 190.972656 99.511719 190.652344 99.277344 190.304688 C 99.046875 189.957031 98.851562 189.59375 98.691406 189.207031 C 98.535156 188.824219 98.414062 188.425781 98.332031 188.019531 C 98.25 187.609375 98.210938 187.199219 98.210938 186.78125 C 98.210938 186.363281 98.25 185.953125 98.332031 185.542969 C 98.414062 185.136719 98.535156 184.738281 98.691406 184.355469 C 98.851562 183.96875 99.046875 183.605469 99.277344 183.257812 C 99.511719 182.910156 99.773438 182.589844 100.066406 182.296875 C 100.363281 182.003906 100.683594 181.738281 101.027344 181.507812 C 101.375 181.277344 101.742188 181.082031 102.125 180.921875 C 102.507812 180.761719 102.90625 180.644531 103.316406 180.5625 C 103.722656 180.480469 104.136719 180.441406 104.550781 180.441406 L 270.996094 180.441406 C 271.414062 180.441406 271.828125 180.480469 272.234375 180.5625 C 272.644531 180.644531 273.039062 180.761719 273.425781 180.921875 C 273.808594 181.082031 274.175781 181.277344 274.519531 181.507812 C 274.867188 181.738281 275.1875 182.003906 275.480469 182.296875 C 275.777344 182.589844 276.039062 182.910156 276.269531 183.257812 C 276.5 183.605469 276.695312 183.96875 276.855469 184.355469 C 277.015625 184.738281 277.136719 185.136719 277.21875 185.542969 C 277.296875 185.953125 277.339844 186.363281 277.339844 186.78125 C 277.339844 187.199219 277.296875 187.609375 277.21875 188.019531 C 277.136719 188.425781 277.015625 188.824219 276.855469 189.207031 C 276.695312 189.59375 276.5 189.957031 276.269531 190.304688 C 276.039062 190.652344 275.777344 190.972656 275.480469 191.265625 C 275.1875 191.558594 274.867188 191.824219 274.519531 192.054688 C 274.175781 192.285156 273.808594 192.480469 273.425781 192.640625 C 273.039062 192.800781 272.644531 192.917969 272.234375 193 C 271.828125 193.082031 271.414062 193.121094 270.996094 193.121094 Z M 270.996094 193.121094 " fill-opacity="1" fill-rule="nonzero"/><path fill="#ffffff" d="M 187.839844 276.410156 C 187.421875 276.410156 187.007812 276.367188 186.601562 276.289062 C 186.191406 276.207031 185.796875 276.085938 185.410156 275.925781 C 185.027344 275.765625 184.660156 275.570312 184.316406 275.339844 C 183.96875 275.109375 183.648438 274.847656 183.355469 274.550781 C 183.058594 274.257812 182.796875 273.9375 182.566406 273.589844 C 182.335938 273.246094 182.140625 272.878906 181.980469 272.496094 C 181.820312 272.109375 181.699219 271.714844 181.617188 271.304688 C 181.539062 270.894531 181.496094 270.484375 181.496094 270.066406 L 181.496094 103.496094 C 181.496094 103.078125 181.539062 102.667969 181.617188 102.257812 C 181.699219 101.847656 181.820312 101.453125 181.980469 101.066406 C 182.140625 100.683594 182.335938 100.316406 182.566406 99.972656 C 182.796875 99.625 183.058594 99.304688 183.355469 99.011719 C 183.648438 98.714844 183.96875 98.453125 184.316406 98.222656 C 184.660156 97.992188 185.027344 97.796875 185.410156 97.636719 C 185.796875 97.476562 186.191406 97.355469 186.601562 97.273438 C 187.007812 97.195312 187.421875 97.152344 187.839844 97.152344 C 188.253906 97.152344 188.667969 97.195312 189.074219 97.273438 C 189.484375 97.355469 189.878906 97.476562 190.265625 97.636719 C 190.648438 97.796875 191.015625 97.992188 191.363281 98.222656 C 191.707031 98.453125 192.027344 98.714844 192.324219 99.011719 C 192.617188 99.304688 192.878906 99.625 193.109375 99.972656 C 193.34375 100.316406 193.539062 100.683594 193.695312 101.066406 C 193.855469 101.453125 193.976562 101.847656 194.058594 102.257812 C 194.140625 102.667969 194.179688 103.078125 194.179688 103.496094 L 194.179688 270.066406 C 194.179688 270.484375 194.140625 270.894531 194.058594 271.304688 C 193.976562 271.714844 193.855469 272.109375 193.695312 272.496094 C 193.539062 272.878906 193.34375 273.246094 193.109375 273.589844 C 192.878906 273.9375 192.617188 274.257812 192.324219 274.550781 C 192.027344 274.847656 191.707031 275.109375 191.363281 275.339844 C 191.015625 275.570312 190.648438 275.765625 190.265625 275.925781 C 189.878906 276.085938 189.484375 276.207031 189.074219 276.289062 C 188.667969 276.367188 188.253906 276.410156 187.839844 276.410156 Z M 187.839844 276.410156 " fill-opacity="1" fill-rule="nonzero"/></svg>