<svg xmlns="http://www.w3.org/2000/svg" xmlns:xlink="http://www.w3.org/1999/xlink" width="500" zoomAndPan="magnify" viewBox="0 0 375 374.999991" height="500" preserveAspectRatio="xMidYMid meet" version="1.0"><path fill="#000000" d="M 187.5 0 C 84.375 0 0 84.375 0 187.5 C 0 290.625 84.375 375 187.5 375 C 290.625 375 375 290.625 375 187.5 C 375 84.375 290.625 0 187.5 0 Z M 262.5 206.25 L 206.25 206.25 L 206.25 262.5 C 206.25 273.75 198.75 281.25 187.5 281.25 C 176.25 281.25 168.75 273.75 168.75 262.5 L 168.75 206.25 L 112.5 206.25 C 101.25 206.25 93.75 198.75 93.75 187.5 C 93.75 176.25 101.25 168.75 112.5 168.75 L 168.75 168.75 L 168.75 112.5 C 168.75 101.25 176.25 93.75 187.5 93.75 C 198.75 93.75 206.25 101.25 206.25 112.5 L 206.25 168.75 L 262.5 168.75 C 273.75 168.75 281.25 176.25 281.25 187.5 C 281.25 198.75 273.75 206.25 262.5 206.25 Z M 262.5 206.25 " fill-opacity="1" fill-rule="nonzero"/></svg>
