<svg xmlns="http://www.w3.org/2000/svg" xmlns:xlink="http://www.w3.org/1999/xlink" width="500" zoomAndPan="magnify" viewBox="0 0 375 374.999991" height="500" preserveAspectRatio="xMidYMid meet" version="1.0"><path fill="#ffffff" d="M 187.5 0 C 83.945312 0 0 83.945312 0 187.5 C 0 291.050781 83.945312 375 187.5 375 C 291.050781 375 375 291.050781 375 187.5 C 375 83.945312 291.050781 0 187.5 0 Z M 187.5 20.699219 C 279.472656 20.699219 354.296875 95.523438 354.296875 187.5 C 354.296875 279.472656 279.472656 354.296875 187.5 354.296875 C 95.523438 354.296875 20.703125 279.472656 20.703125 187.5 C 20.703125 95.523438 95.523438 20.699219 187.5 20.699219 " fill-opacity="1" fill-rule="nonzero"/><path fill="#ffffff" d="M 298.199219 197.503906 C 298.351562 197.320312 298.484375 197.121094 298.628906 196.925781 C 298.789062 196.710938 298.960938 196.5 299.109375 196.273438 C 299.261719 196.046875 299.394531 195.808594 299.535156 195.578125 C 299.65625 195.371094 299.785156 195.171875 299.898438 194.960938 C 300.023438 194.722656 300.132812 194.476562 300.246094 194.234375 C 300.351562 194.015625 300.460938 193.796875 300.554688 193.574219 C 300.652344 193.335938 300.730469 193.09375 300.816406 192.855469 C 300.90625 192.613281 300.996094 192.371094 301.070312 192.125 C 301.144531 191.886719 301.199219 191.640625 301.257812 191.402344 C 301.324219 191.148438 301.394531 190.894531 301.445312 190.636719 C 301.5 190.359375 301.535156 190.078125 301.574219 189.800781 C 301.605469 189.574219 301.648438 189.351562 301.667969 189.121094 C 301.773438 188.09375 301.773438 187.058594 301.667969 186.027344 C 301.644531 185.792969 301.605469 185.5625 301.570312 185.328125 C 301.527344 185.054688 301.5 184.785156 301.445312 184.515625 C 301.390625 184.246094 301.316406 183.988281 301.25 183.722656 C 301.195312 183.492188 301.140625 183.261719 301.074219 183.03125 C 300.996094 182.769531 300.894531 182.519531 300.804688 182.265625 C 300.722656 182.039062 300.648438 181.808594 300.554688 181.585938 C 300.457031 181.34375 300.34375 181.117188 300.230469 180.882812 C 300.121094 180.652344 300.019531 180.421875 299.898438 180.195312 C 299.78125 179.96875 299.640625 179.753906 299.511719 179.535156 C 299.378906 179.316406 299.253906 179.09375 299.113281 178.878906 C 298.949219 178.632812 298.761719 178.398438 298.585938 178.164062 C 298.457031 177.992188 298.339844 177.816406 298.199219 177.648438 C 297.847656 177.21875 297.472656 176.8125 297.078125 176.421875 C 297.050781 176.398438 297.035156 176.371094 297.007812 176.347656 L 241.546875 120.882812 C 235.429688 114.765625 225.507812 114.765625 219.390625 120.882812 C 213.273438 127 213.273438 136.921875 219.390625 143.039062 L 248.265625 171.910156 L 88.917969 171.910156 C 80.265625 171.910156 73.253906 178.925781 73.253906 187.574219 C 73.253906 196.226562 80.265625 203.242188 88.917969 203.242188 L 248.265625 203.242188 L 219.542969 231.960938 C 213.425781 238.082031 213.425781 247.996094 219.542969 254.113281 C 222.601562 257.171875 226.609375 258.703125 230.621094 258.703125 C 234.628906 258.703125 238.640625 257.171875 241.699219 254.113281 L 297.160156 198.652344 C 297.171875 198.640625 297.183594 198.625 297.199219 198.613281 C 297.546875 198.261719 297.882812 197.890625 298.199219 197.503906 " fill-opacity="1" fill-rule="nonzero"/></svg>