<svg xmlns="http://www.w3.org/2000/svg" xmlns:xlink="http://www.w3.org/1999/xlink" width="500" zoomAndPan="magnify" viewBox="0 0 375 374.999991" height="500" preserveAspectRatio="xMidYMid meet" version="1.0"><defs><clipPath id="48a0f4fe1d"><path d="M 0 77.558594 L 374.898438 77.558594 L 374.898438 297.117188 L 0 297.117188 Z M 0 77.558594 " clip-rule="nonzero"/></clipPath></defs><g clip-path="url(#48a0f4fe1d)"><path fill="#ffffff" d="M 169.089844 257.234375 C 175.28125 257.5 180.109375 262.726562 179.84375 268.917969 C 179.710938 272.046875 178.277344 275.011719 175.847656 277.042969 L 163.429688 287.296875 C 158.601562 291.191406 151.542969 290.425781 147.648438 285.597656 C 143.820312 280.871094 144.488281 273.914062 149.148438 269.984375 L 161.566406 259.730469 C 163.398438 258.265625 165.628906 257.398438 167.957031 257.265625 C 168.355469 257.234375 168.722656 257.234375 169.089844 257.234375 Z M 145.820312 237.855469 C 152.011719 237.523438 157.304688 242.25 157.636719 248.445312 C 157.835938 251.972656 156.339844 255.402344 153.609375 257.664062 L 134.867188 273.148438 C 130.105469 277.109375 123.011719 276.410156 119.050781 271.648438 C 115.125 266.855469 115.789062 259.761719 120.582031 255.835938 L 139.328125 240.355469 C 141.15625 238.855469 143.421875 237.957031 145.820312 237.855469 Z M 126.976562 215.683594 C 133.167969 215.386719 138.425781 220.144531 138.761719 226.339844 C 138.925781 229.902344 137.394531 233.296875 134.664062 235.558594 L 110.730469 255.335938 C 105.902344 259.265625 98.84375 258.53125 94.914062 253.703125 C 91.054688 248.945312 91.71875 241.984375 96.414062 238.023438 L 120.382812 218.25 C 122.246094 216.71875 124.546875 215.816406 126.976562 215.683594 Z M 96.378906 203.132812 C 96.746094 203.132812 97.144531 203.132812 97.511719 203.132812 C 103.703125 203.398438 108.53125 208.628906 108.265625 214.820312 C 108.132812 217.980469 106.667969 220.945312 104.238281 222.976562 L 90.988281 233.894531 C 86.058594 237.691406 79 236.792969 75.238281 231.863281 C 71.609375 227.203125 72.242188 220.511719 76.703125 216.582031 L 89.953125 205.628906 C 91.785156 204.132812 94.050781 203.265625 96.414062 203.132812 Z M 171.585938 125.929688 C 174.949219 125.929688 178.3125 126.164062 181.675781 126.628906 C 173.351562 131.789062 164.527344 136.082031 155.308594 139.378906 C 149.480469 141.476562 146.449219 147.9375 148.582031 153.761719 C 149.8125 157.15625 152.578125 159.753906 156.074219 160.753906 C 173.21875 165.613281 191.5625 163.984375 207.609375 156.226562 L 280.351562 215.285156 C 284.84375 219.046875 285.445312 225.773438 281.683594 230.265625 C 278.152344 234.496094 271.960938 235.328125 267.433594 232.199219 L 213.035156 193.078125 C 211.503906 192.046875 209.4375 192.414062 208.375 193.910156 C 207.34375 195.375 207.675781 197.40625 209.140625 198.507812 L 261.675781 236.226562 C 266.601562 239.988281 267.566406 247.011719 263.804688 251.972656 C 260.175781 256.699219 253.484375 257.800781 248.558594 254.46875 L 198.953125 218.847656 C 197.488281 217.78125 195.390625 218.113281 194.324219 219.613281 C 193.257812 221.113281 193.625 223.175781 195.089844 224.242188 L 238.871094 255.703125 C 243.996094 259.164062 245.328125 266.15625 241.832031 271.28125 C 238.371094 276.410156 231.378906 277.742188 226.25 274.277344 C 226.085938 274.144531 225.917969 274.046875 225.753906 273.914062 L 184.605469 244.347656 C 183.039062 243.351562 180.976562 243.816406 180.007812 245.382812 C 179.078125 246.8125 179.375 248.675781 180.707031 249.742188 L 212.203125 272.382812 C 216.5625 275.742188 217.363281 282.003906 214 286.363281 C 210.804688 290.492188 204.945312 291.457031 200.582031 288.5625 L 184.4375 276.976562 C 189.164062 268.285156 185.96875 257.433594 177.3125 252.707031 C 173.316406 250.507812 168.65625 249.941406 164.261719 251.074219 C 165.394531 241.285156 158.371094 232.398438 148.546875 231.265625 C 147.351562 231.097656 146.117188 231.097656 144.917969 231.199219 C 147.285156 221.609375 141.457031 211.921875 131.871094 209.527344 C 126.375 208.160156 120.550781 209.492188 116.15625 213.121094 L 114.957031 214.121094 C 114.855469 204.234375 106.765625 196.308594 96.878906 196.441406 C 92.816406 196.476562 88.855469 197.90625 85.726562 200.503906 L 74.273438 209.957031 L 63.820312 202.300781 L 107.367188 130.625 C 121.714844 130.957031 136.03125 130.492188 150.3125 129.191406 C 157.203125 127.0625 164.394531 125.929688 171.585938 125.929688 Z M 204.613281 124.566406 C 206.84375 124.664062 209.074219 125.097656 211.203125 125.863281 L 243.761719 137.480469 L 268.597656 128.394531 L 310.113281 194.878906 L 288.507812 214.6875 C 287.476562 212.921875 286.144531 211.390625 284.546875 210.09375 L 208.40625 148.269531 C 193.058594 156.992188 174.847656 159.15625 157.871094 154.328125 C 155.441406 153.660156 154.042969 151.132812 154.707031 148.703125 C 155.105469 147.269531 156.171875 146.136719 157.570312 145.640625 C 169.355469 141.410156 180.542969 135.652344 190.894531 128.527344 C 194.890625 125.761719 199.71875 124.363281 204.613281 124.566406 Z M 306.585938 88.242188 L 365.746094 182.957031 L 326.027344 207.792969 L 266.835938 113.046875 Z M 71.476562 86.679688 L 111.496094 110.980469 L 49.070312 213.753906 L 9.054688 189.417969 Z M 69.246094 77.558594 L 0 191.648438 L 51.402344 222.875 L 60.425781 207.996094 L 69.511719 214.652344 C 63.652344 222.609375 65.386719 233.796875 73.34375 239.65625 C 77.039062 242.351562 81.597656 243.550781 86.160156 242.984375 C 84.09375 252.640625 90.289062 262.128906 99.941406 264.15625 C 103.273438 264.890625 106.765625 264.625 109.964844 263.425781 C 109.363281 273.28125 116.886719 281.734375 126.742188 282.300781 C 130.96875 282.566406 135.097656 281.335938 138.496094 278.804688 C 138.59375 288.695312 146.683594 296.617188 156.539062 296.519531 C 160.632812 296.484375 164.59375 295.019531 167.757812 292.421875 L 180.210938 282.167969 C 180.210938 282.136719 180.210938 282.136719 180.210938 282.101562 L 196.6875 293.988281 C 204.144531 299.347656 214.53125 297.648438 219.894531 290.191406 C 221.992188 287.261719 223.089844 283.699219 222.988281 280.070312 C 231.445312 285.199219 242.429688 282.5 247.558594 274.078125 C 249.6875 270.617188 250.554688 266.523438 250.023438 262.492188 C 259.476562 265.324219 269.429688 259.898438 272.261719 250.441406 C 273.191406 247.3125 273.226562 243.949219 272.394531 240.785156 C 281.914062 241.484375 290.207031 234.296875 290.90625 224.773438 C 290.972656 223.707031 290.972656 222.644531 290.839844 221.578125 L 313.675781 200.605469 L 323.898438 216.949219 L 374.898438 185.089844 L 308.683594 79.089844 L 257.679688 110.949219 L 265.003906 122.632812 L 243.695312 130.425781 L 213.433594 119.605469 C 205.675781 116.808594 197.089844 117.472656 189.863281 121.367188 C 176.378906 118.207031 162.296875 118.640625 149.015625 122.632812 C 136.496094 123.734375 123.945312 124.199219 111.363281 124.03125 L 120.648438 108.785156 L 69.246094 77.558594 " fill-opacity="1" fill-rule="nonzero"/></g><path fill="#ffffff" d="M 12.417969 171.074219 L 69.246094 77.558594 " fill-opacity="1" fill-rule="nonzero"/></svg>