<svg xmlns="http://www.w3.org/2000/svg" xmlns:xlink="http://www.w3.org/1999/xlink" width="500" zoomAndPan="magnify" viewBox="0 0 375 374.999991" height="500" preserveAspectRatio="xMidYMid meet" version="1.0"><defs><clipPath id="9ef8afe4a0"><path d="M 197 164 L 328.464844 164 L 328.464844 340.742188 L 197 340.742188 Z M 197 164 " clip-rule="nonzero"/></clipPath><clipPath id="9f075b6fe1"><path d="M 46.464844 34 L 269 34 L 269 319 L 46.464844 319 Z M 46.464844 34 " clip-rule="nonzero"/></clipPath></defs><path fill="#ffffff" d="M 312.980469 221.074219 L 213.300781 221.074219 C 211.378906 221.074219 209.820312 219.515625 209.820312 217.59375 L 209.820312 185.992188 C 209.820312 184.070312 211.378906 182.511719 213.300781 182.511719 L 312.980469 182.511719 C 314.902344 182.511719 316.460938 184.070312 316.460938 185.992188 L 316.460938 217.59375 C 316.460938 219.515625 314.902344 221.074219 312.980469 221.074219 Z M 216.777344 214.117188 L 309.5 214.117188 L 309.5 189.472656 L 216.777344 189.472656 Z M 216.777344 214.117188 " fill-opacity="1" fill-rule="nonzero"/><g clip-path="url(#9ef8afe4a0)"><path fill="#ffffff" d="M 314.964844 340.765625 L 211.316406 340.765625 C 203.828125 340.765625 197.734375 334.671875 197.734375 327.183594 L 197.734375 178.121094 C 197.734375 170.628906 203.828125 164.539062 211.316406 164.539062 L 314.964844 164.539062 C 322.453125 164.539062 328.546875 170.628906 328.546875 178.121094 L 328.546875 327.183594 C 328.546875 334.671875 322.453125 340.765625 314.964844 340.765625 Z M 211.316406 171.496094 C 207.664062 171.496094 204.691406 174.46875 204.691406 178.121094 L 204.691406 327.183594 C 204.691406 330.835938 207.664062 333.808594 211.316406 333.808594 L 314.964844 333.808594 C 318.617188 333.808594 321.585938 330.835938 321.585938 327.183594 L 321.585938 178.121094 C 321.585938 174.46875 318.617188 171.496094 314.964844 171.496094 Z M 211.316406 171.496094 " fill-opacity="1" fill-rule="nonzero"/></g><path fill="#ffffff" d="M 312.980469 274.851562 L 298.226562 274.851562 C 296.304688 274.851562 294.75 273.292969 294.75 271.371094 L 294.75 256.621094 C 294.75 254.699219 296.304688 253.140625 298.226562 253.140625 L 312.980469 253.140625 C 314.902344 253.140625 316.460938 254.699219 316.460938 256.621094 L 316.460938 271.371094 C 316.460938 273.292969 314.902344 274.851562 312.980469 274.851562 Z M 301.707031 267.890625 L 309.5 267.890625 L 309.5 260.097656 L 301.707031 260.097656 Z M 301.707031 267.890625 " fill-opacity="1" fill-rule="nonzero"/><path fill="#ffffff" d="M 312.980469 328.628906 L 298.226562 328.628906 C 296.304688 328.628906 294.75 327.074219 294.75 325.148438 L 294.75 283.507812 C 294.75 281.585938 296.304688 280.027344 298.226562 280.027344 L 312.980469 280.027344 C 314.902344 280.027344 316.460938 281.585938 316.460938 283.507812 L 316.460938 325.148438 C 316.460938 327.074219 314.902344 328.628906 312.980469 328.628906 Z M 301.707031 321.671875 L 309.5 321.671875 L 309.5 286.988281 L 301.707031 286.988281 Z M 301.707031 321.671875 " fill-opacity="1" fill-rule="nonzero"/><path fill="#ffffff" d="M 284.398438 274.851562 L 269.644531 274.851562 C 267.722656 274.851562 266.164062 273.292969 266.164062 271.371094 L 266.164062 256.621094 C 266.164062 254.699219 267.722656 253.140625 269.644531 253.140625 L 284.398438 253.140625 C 286.320312 253.140625 287.878906 254.699219 287.878906 256.621094 L 287.878906 271.371094 C 287.878906 273.292969 286.320312 274.851562 284.398438 274.851562 Z M 273.125 267.890625 L 280.917969 267.890625 L 280.917969 260.097656 L 273.125 260.097656 Z M 273.125 267.890625 " fill-opacity="1" fill-rule="nonzero"/><path fill="#ffffff" d="M 284.398438 301.742188 L 269.644531 301.742188 C 267.722656 301.742188 266.164062 300.183594 266.164062 298.261719 L 266.164062 283.507812 C 266.164062 281.585938 267.722656 280.027344 269.644531 280.027344 L 284.398438 280.027344 C 286.320312 280.027344 287.878906 281.585938 287.878906 283.507812 L 287.878906 298.261719 C 287.878906 300.183594 286.320312 301.742188 284.398438 301.742188 Z M 273.125 294.78125 L 280.917969 294.78125 L 280.917969 286.988281 L 273.125 286.988281 Z M 273.125 294.78125 " fill-opacity="1" fill-rule="nonzero"/><path fill="#ffffff" d="M 284.398438 328.628906 L 241.0625 328.628906 C 239.140625 328.628906 237.582031 327.074219 237.582031 325.148438 L 237.582031 310.398438 C 237.582031 308.476562 239.140625 306.917969 241.0625 306.917969 L 284.398438 306.917969 C 286.320312 306.917969 287.878906 308.476562 287.878906 310.398438 L 287.878906 325.148438 C 287.878906 327.074219 286.320312 328.628906 284.398438 328.628906 Z M 244.542969 321.671875 L 280.917969 321.671875 L 280.917969 313.878906 L 244.542969 313.878906 Z M 244.542969 321.671875 " fill-opacity="1" fill-rule="nonzero"/><path fill="#ffffff" d="M 255.816406 274.851562 L 241.0625 274.851562 C 239.140625 274.851562 237.585938 273.292969 237.585938 271.371094 L 237.585938 256.621094 C 237.585938 254.699219 239.140625 253.140625 241.0625 253.140625 L 255.816406 253.140625 C 257.738281 253.140625 259.296875 254.699219 259.296875 256.621094 L 259.296875 271.371094 C 259.296875 273.292969 257.738281 274.851562 255.816406 274.851562 Z M 244.542969 267.890625 L 252.335938 267.890625 L 252.335938 260.097656 L 244.542969 260.097656 Z M 244.542969 267.890625 " fill-opacity="1" fill-rule="nonzero"/><path fill="#ffffff" d="M 255.816406 301.742188 L 241.0625 301.742188 C 239.140625 301.742188 237.585938 300.183594 237.585938 298.261719 L 237.585938 283.507812 C 237.585938 281.585938 239.140625 280.027344 241.0625 280.027344 L 255.816406 280.027344 C 257.738281 280.027344 259.296875 281.585938 259.296875 283.507812 L 259.296875 298.261719 C 259.296875 300.183594 257.738281 301.742188 255.816406 301.742188 Z M 244.542969 294.78125 L 252.335938 294.78125 L 252.335938 286.988281 L 244.542969 286.988281 Z M 244.542969 294.78125 " fill-opacity="1" fill-rule="nonzero"/><path fill="#ffffff" d="M 238.296875 247.964844 L 212.480469 247.964844 C 210.558594 247.964844 209 246.40625 209 244.484375 L 209 229.730469 C 209 227.808594 210.558594 226.25 212.480469 226.25 L 238.296875 226.25 C 240.222656 226.25 241.777344 227.808594 241.777344 229.730469 L 241.777344 244.484375 C 241.777344 246.40625 240.222656 247.964844 238.296875 247.964844 Z M 215.960938 241.003906 L 234.820312 241.003906 L 234.820312 233.210938 L 215.960938 233.210938 Z M 215.960938 241.003906 " fill-opacity="1" fill-rule="nonzero"/><path fill="#ffffff" d="M 227.234375 274.851562 L 212.480469 274.851562 C 210.558594 274.851562 209 273.292969 209 271.371094 L 209 256.621094 C 209 254.699219 210.558594 253.140625 212.480469 253.140625 L 227.234375 253.140625 C 229.15625 253.140625 230.714844 254.699219 230.714844 256.621094 L 230.714844 271.371094 C 230.714844 273.292969 229.15625 274.851562 227.234375 274.851562 Z M 215.960938 267.890625 L 223.753906 267.890625 L 223.753906 260.097656 L 215.960938 260.097656 Z M 215.960938 267.890625 " fill-opacity="1" fill-rule="nonzero"/><path fill="#ffffff" d="M 227.234375 301.742188 L 212.480469 301.742188 C 210.558594 301.742188 209 300.183594 209 298.261719 L 209 283.507812 C 209 281.585938 210.558594 280.027344 212.480469 280.027344 L 227.234375 280.027344 C 229.15625 280.027344 230.714844 281.585938 230.714844 283.507812 L 230.714844 298.261719 C 230.714844 300.183594 229.15625 301.742188 227.234375 301.742188 Z M 215.960938 294.78125 L 223.753906 294.78125 L 223.753906 286.988281 L 215.960938 286.988281 Z M 215.960938 294.78125 " fill-opacity="1" fill-rule="nonzero"/><path fill="#ffffff" d="M 227.234375 328.628906 L 212.480469 328.628906 C 210.558594 328.628906 209 327.074219 209 325.148438 L 209 310.398438 C 209 308.476562 210.558594 306.917969 212.480469 306.917969 L 227.234375 306.917969 C 229.15625 306.917969 230.714844 308.476562 230.714844 310.398438 L 230.714844 325.148438 C 230.714844 327.074219 229.15625 328.628906 227.234375 328.628906 Z M 215.960938 321.671875 L 223.753906 321.671875 L 223.753906 313.878906 L 215.960938 313.878906 Z M 215.960938 321.671875 " fill-opacity="1" fill-rule="nonzero"/><path fill="#ffffff" d="M 312.980469 247.964844 L 287.164062 247.964844 C 285.238281 247.964844 283.683594 246.40625 283.683594 244.484375 L 283.683594 229.730469 C 283.683594 227.808594 285.238281 226.25 287.164062 226.25 L 312.980469 226.25 C 314.902344 226.25 316.460938 227.808594 316.460938 229.730469 L 316.460938 244.484375 C 316.460938 246.40625 314.902344 247.964844 312.980469 247.964844 Z M 290.640625 241.003906 L 309.5 241.003906 L 309.5 233.210938 L 290.640625 233.210938 Z M 290.640625 241.003906 " fill-opacity="1" fill-rule="nonzero"/><path fill="#ffffff" d="M 276.046875 247.964844 L 250.230469 247.964844 C 248.308594 247.964844 246.75 246.40625 246.75 244.484375 L 246.75 229.730469 C 246.75 227.808594 248.308594 226.25 250.230469 226.25 L 276.046875 226.25 C 277.972656 226.25 279.527344 227.808594 279.527344 229.730469 L 279.527344 244.484375 C 279.527344 246.40625 277.972656 247.964844 276.046875 247.964844 Z M 253.710938 241.003906 L 272.570312 241.003906 L 272.570312 233.210938 L 253.710938 233.210938 Z M 253.710938 241.003906 " fill-opacity="1" fill-rule="nonzero"/><g clip-path="url(#9f075b6fe1)"><path fill="#ffffff" d="M 201.214844 318.664062 L 76.289062 318.664062 C 59.84375 318.664062 46.46875 305.285156 46.46875 288.84375 L 46.46875 64.3125 C 46.46875 47.867188 59.84375 34.492188 76.289062 34.492188 L 216.152344 34.492188 C 218.074219 34.492188 219.632812 36.046875 219.632812 37.96875 C 219.632812 39.890625 218.074219 41.449219 216.152344 41.449219 L 76.289062 41.449219 C 63.683594 41.449219 53.425781 51.703125 53.425781 64.3125 L 53.425781 288.84375 C 53.425781 301.449219 63.683594 311.707031 76.289062 311.707031 L 201.214844 311.707031 C 203.136719 311.707031 204.691406 313.261719 204.691406 315.183594 C 204.691406 317.109375 203.136719 318.664062 201.214844 318.664062 Z M 265.234375 171.496094 C 263.3125 171.496094 261.757812 169.941406 261.757812 168.019531 L 261.757812 87.054688 C 261.757812 85.132812 263.3125 83.574219 265.234375 83.574219 C 267.15625 83.574219 268.714844 85.132812 268.714844 87.054688 L 268.714844 168.019531 C 268.714844 169.941406 267.15625 171.496094 265.234375 171.496094 Z M 265.234375 171.496094 " fill-opacity="1" fill-rule="nonzero"/></g><path fill="#ffffff" d="M 265.234375 90.535156 L 229.113281 90.535156 C 220.046875 90.535156 212.671875 83.160156 212.671875 74.09375 L 212.671875 37.96875 C 212.671875 36.5625 213.519531 35.292969 214.820312 34.753906 C 216.121094 34.21875 217.617188 34.515625 218.613281 35.507812 L 267.695312 84.59375 C 268.691406 85.589844 268.988281 87.085938 268.449219 88.386719 C 267.914062 89.6875 266.644531 90.535156 265.234375 90.535156 Z M 219.632812 46.371094 L 219.632812 74.09375 C 219.632812 79.320312 223.886719 83.574219 229.113281 83.574219 L 256.835938 83.574219 Z M 219.632812 46.371094 " fill-opacity="1" fill-rule="nonzero"/><path fill="#ffffff" d="M 236.554688 123.003906 L 184.636719 123.003906 C 182.714844 123.003906 181.15625 121.445312 181.15625 119.523438 C 181.15625 117.601562 182.714844 116.042969 184.636719 116.042969 L 236.554688 116.042969 C 238.476562 116.042969 240.035156 117.601562 240.035156 119.523438 C 240.035156 121.445312 238.476562 123.003906 236.554688 123.003906 Z M 236.554688 123.003906 " fill-opacity="1" fill-rule="nonzero"/><path fill="#ffffff" d="M 236.554688 155.640625 L 175.109375 155.640625 C 173.1875 155.640625 171.628906 154.082031 171.628906 152.164062 C 171.628906 150.242188 173.1875 148.683594 175.109375 148.683594 L 236.554688 148.683594 C 238.476562 148.683594 240.035156 150.242188 240.035156 152.164062 C 240.035156 154.082031 238.476562 155.640625 236.554688 155.640625 Z M 236.554688 155.640625 " fill-opacity="1" fill-rule="nonzero"/><path fill="#ffffff" d="M 201.214844 188.28125 L 123.953125 188.28125 C 122.03125 188.28125 120.472656 186.722656 120.472656 184.800781 C 120.472656 182.878906 122.03125 181.320312 123.953125 181.320312 L 201.214844 181.320312 C 203.136719 181.320312 204.691406 182.878906 204.691406 184.800781 C 204.691406 186.722656 203.136719 188.28125 201.214844 188.28125 Z M 201.214844 188.28125 " fill-opacity="1" fill-rule="nonzero"/><path fill="#ffffff" d="M 201.214844 220.917969 L 123.953125 220.917969 C 122.03125 220.917969 120.472656 219.363281 120.472656 217.441406 C 120.472656 215.519531 122.03125 213.960938 123.953125 213.960938 L 201.214844 213.960938 C 203.136719 213.960938 204.691406 215.519531 204.691406 217.441406 C 204.691406 219.363281 203.136719 220.917969 201.214844 220.917969 Z M 201.214844 220.917969 " fill-opacity="1" fill-rule="nonzero"/><path fill="#ffffff" d="M 201.214844 253.558594 L 123.953125 253.558594 C 122.03125 253.558594 120.472656 252.003906 120.472656 250.082031 C 120.472656 248.15625 122.03125 246.601562 123.953125 246.601562 L 201.214844 246.601562 C 203.136719 246.601562 204.691406 248.15625 204.691406 250.082031 C 204.691406 252.003906 203.136719 253.558594 201.214844 253.558594 Z M 201.214844 253.558594 " fill-opacity="1" fill-rule="nonzero"/><path fill="#ffffff" d="M 201.214844 286.199219 L 123.953125 286.199219 C 122.03125 286.199219 120.472656 284.640625 120.472656 282.71875 C 120.472656 280.796875 122.03125 279.238281 123.953125 279.238281 L 201.214844 279.238281 C 203.136719 279.238281 204.691406 280.796875 204.691406 282.71875 C 204.691406 284.640625 203.136719 286.199219 201.214844 286.199219 Z M 201.214844 286.199219 " fill-opacity="1" fill-rule="nonzero"/><path fill="#ffffff" d="M 85.800781 197.457031 C 84.910156 197.457031 84.023438 197.117188 83.34375 196.4375 L 76.167969 189.261719 C 74.808594 187.902344 74.808594 185.699219 76.167969 184.339844 C 77.527344 182.980469 79.730469 182.980469 81.089844 184.339844 L 85.804688 189.054688 L 101.691406 173.164062 C 103.050781 171.804688 105.253906 171.804688 106.613281 173.164062 C 107.972656 174.523438 107.972656 176.726562 106.613281 178.085938 L 88.261719 196.433594 C 87.582031 197.117188 86.691406 197.457031 85.800781 197.457031 Z M 85.800781 197.457031 " fill-opacity="1" fill-rule="nonzero"/><path fill="#ffffff" d="M 85.800781 262.734375 C 84.910156 262.734375 84.023438 262.394531 83.339844 261.714844 L 76.167969 254.539062 C 74.808594 253.179688 74.808594 250.976562 76.167969 249.621094 C 77.527344 248.261719 79.730469 248.261719 81.089844 249.621094 L 85.800781 254.332031 L 101.691406 238.445312 C 103.050781 237.085938 105.253906 237.085938 106.613281 238.445312 C 107.972656 239.800781 107.972656 242.007812 106.613281 243.363281 L 88.261719 261.714844 C 87.582031 262.394531 86.691406 262.734375 85.800781 262.734375 Z M 85.800781 262.734375 " fill-opacity="1" fill-rule="nonzero"/><path fill="#ffffff" d="M 85.800781 295.375 C 84.910156 295.375 84.023438 295.035156 83.339844 294.355469 L 76.167969 287.179688 C 74.808594 285.820312 74.808594 283.617188 76.167969 282.257812 C 77.527344 280.898438 79.730469 280.898438 81.089844 282.257812 L 85.800781 286.972656 L 101.691406 271.082031 C 103.050781 269.722656 105.253906 269.722656 106.613281 271.082031 C 107.972656 272.441406 107.972656 274.644531 106.613281 276.003906 L 88.261719 294.351562 C 87.582031 295.035156 86.691406 295.375 85.800781 295.375 Z M 85.800781 295.375 " fill-opacity="1" fill-rule="nonzero"/><path fill="#ffffff" d="M 85.800781 230.09375 C 84.910156 230.09375 84.023438 229.753906 83.339844 229.074219 L 76.167969 221.902344 C 74.808594 220.542969 74.808594 218.339844 76.167969 216.980469 C 77.527344 215.621094 79.730469 215.621094 81.089844 216.980469 L 85.800781 221.695312 L 101.691406 205.804688 C 103.050781 204.445312 105.253906 204.445312 106.613281 205.804688 C 107.972656 207.164062 107.972656 209.367188 106.613281 210.726562 L 88.261719 229.074219 C 87.582031 229.753906 86.691406 230.09375 85.800781 230.09375 Z M 85.800781 230.09375 " fill-opacity="1" fill-rule="nonzero"/><path fill="#ffffff" d="M 122.824219 157.121094 C 96.535156 157.121094 75.148438 135.734375 75.148438 109.441406 C 75.148438 83.152344 96.535156 61.765625 122.824219 61.765625 C 149.117188 61.765625 170.503906 83.152344 170.503906 109.441406 C 170.503906 135.734375 149.117188 157.121094 122.824219 157.121094 Z M 122.824219 68.726562 C 100.375 68.726562 82.109375 86.992188 82.109375 109.441406 C 82.109375 131.894531 100.375 150.160156 122.824219 150.160156 C 145.277344 150.160156 163.542969 131.894531 163.542969 109.441406 C 163.542969 86.992188 145.277344 68.726562 122.824219 68.726562 Z M 122.824219 68.726562 " fill-opacity="1" fill-rule="nonzero"/><path fill="#ffffff" d="M 123.304688 90.90625 C 121.382812 90.90625 119.824219 89.351562 119.824219 87.429688 L 119.824219 79.59375 C 119.824219 77.671875 121.382812 76.113281 123.304688 76.113281 C 125.226562 76.113281 126.785156 77.671875 126.785156 79.59375 L 126.785156 87.425781 C 126.785156 89.351562 125.226562 90.90625 123.304688 90.90625 Z M 123.304688 90.90625 " fill-opacity="1" fill-rule="nonzero"/><path fill="#ffffff" d="M 122.347656 142.773438 C 120.425781 142.773438 118.867188 141.214844 118.867188 139.292969 L 118.867188 131.460938 C 118.867188 129.539062 120.425781 127.980469 122.347656 127.980469 C 124.265625 127.980469 125.824219 129.539062 125.824219 131.460938 L 125.824219 139.292969 C 125.824219 141.214844 124.269531 142.773438 122.347656 142.773438 Z M 122.347656 142.773438 " fill-opacity="1" fill-rule="nonzero"/><path fill="#ffffff" d="M 121.714844 134.953125 C 121.449219 134.953125 121.183594 134.945312 120.917969 134.933594 C 114.933594 134.632812 107.980469 130.589844 108.082031 120.183594 C 108.101562 118.269531 109.652344 116.734375 111.558594 116.734375 C 111.570312 116.734375 111.582031 116.734375 111.59375 116.734375 C 113.515625 116.753906 115.058594 118.328125 115.039062 120.25 C 114.980469 126.378906 118.394531 127.835938 121.265625 127.980469 C 125.582031 128.195312 129.925781 125.472656 130.207031 122.371094 C 130.210938 122.324219 130.214844 122.277344 130.222656 122.234375 C 130.984375 116.417969 123.3125 113.15625 120.945312 112.292969 C 110.90625 108.644531 106.769531 103.136719 108.648438 95.929688 C 111.109375 86.480469 119.050781 83.179688 125.390625 84.105469 C 132.832031 85.195312 137.835938 91.316406 137.5625 98.996094 C 137.492188 100.914062 135.859375 102.414062 133.957031 102.347656 C 132.039062 102.277344 130.535156 100.664062 130.605469 98.746094 C 130.785156 93.722656 127.363281 91.429688 124.378906 90.992188 C 121.15625 90.519531 116.867188 91.988281 115.382812 97.683594 C 114.742188 100.140625 115.257812 102.820312 123.324219 105.753906 C 126.917969 107.058594 138.507812 112.164062 137.128906 123.070312 C 136.421875 130.34375 128.757812 134.953125 121.714844 134.953125 Z M 121.714844 134.953125 " fill-opacity="1" fill-rule="nonzero"/></svg>