<svg xmlns="http://www.w3.org/2000/svg" xmlns:xlink="http://www.w3.org/1999/xlink" width="500" zoomAndPan="magnify" viewBox="0 0 375 374.999991" height="500" preserveAspectRatio="xMidYMid meet" version="1.0"><path fill="#ffffff" d="M 358.183594 163.558594 L 193.457031 3.238281 C 190.292969 0.164062 185.25 0.164062 182.085938 3.238281 L 17.359375 163.558594 C 14.128906 166.699219 14.070312 171.859375 17.199219 175.085938 C 20.34375 178.324219 25.511719 178.378906 28.726562 175.246094 L 187.773438 20.457031 L 346.824219 175.246094 C 348.40625 176.78125 350.457031 177.554688 352.503906 177.554688 C 354.628906 177.554688 356.75 176.734375 358.351562 175.085938 C 361.476562 171.859375 361.414062 166.699219 358.183594 163.558594 Z M 358.183594 163.558594 " fill-opacity="1" fill-rule="nonzero"/><path fill="#ffffff" d="M 322.332031 216.957031 C 317.832031 216.957031 314.179688 220.609375 314.179688 225.109375 L 314.179688 343.914062 C 314.179688 352.152344 307.484375 358.851562 299.246094 358.851562 L 76.300781 358.851562 C 68.058594 358.851562 61.363281 352.152344 61.363281 343.914062 L 61.363281 225.109375 C 61.363281 220.609375 57.710938 216.957031 53.210938 216.957031 C 48.710938 216.957031 45.058594 220.609375 45.058594 225.109375 L 45.058594 343.914062 C 45.058594 361.140625 59.070312 375.15625 76.300781 375.15625 L 299.238281 375.15625 C 316.46875 375.15625 330.476562 361.140625 330.476562 343.914062 L 330.476562 225.109375 C 330.484375 220.609375 326.832031 216.957031 322.332031 216.957031 Z M 322.332031 216.957031 " fill-opacity="1" fill-rule="nonzero"/></svg>