<svg xmlns="http://www.w3.org/2000/svg" xmlns:xlink="http://www.w3.org/1999/xlink" width="500" zoomAndPan="magnify" viewBox="0 0 375 374.999991" height="500" preserveAspectRatio="xMidYMid meet" version="1.0"><defs><clipPath id="c7ae189b0d"><path d="M 3.167969 5.472656 L 371 5.472656 L 371 369 L 3.167969 369 Z M 3.167969 5.472656 " clip-rule="nonzero"/></clipPath></defs><g clip-path="url(#c7ae189b0d)"><path fill="#ffffff" d="M 4.949219 17.941406 C 3.796875 20.230469 3.167969 22.796875 3.167969 25.4375 L 3.167969 311.097656 C 3.167969 321.898438 10.074219 331.476562 20.316406 334.898438 C 42.609375 342.320312 91.941406 358.761719 117.773438 367.382812 C 124.148438 369.503906 131.15625 368.433594 136.605469 364.507812 C 142.058594 360.578125 145.285156 354.265625 145.285156 347.554688 L 145.285156 331.511719 L 283.21875 331.511719 C 294.761719 331.511719 304.117188 322.15625 304.117188 310.613281 L 304.117188 250.957031 L 309.433594 250.957031 C 311.648438 250.957031 313.78125 250.078125 315.34375 248.507812 L 368.542969 195.308594 C 371.8125 192.046875 371.8125 186.746094 368.542969 183.488281 L 315.34375 130.285156 C 313.78125 128.714844 311.648438 127.835938 309.433594 127.835938 L 304.117188 127.835938 L 304.117188 26.382812 C 304.117188 14.839844 294.761719 5.484375 283.21875 5.484375 C 240.40625 5.484375 66.878906 5.484375 24.070312 5.484375 C 15.535156 5.484375 8.195312 10.601562 4.949219 17.941406 Z M 63.042969 22.203125 L 130.996094 44.851562 C 139.523438 47.699219 145.285156 55.683594 145.285156 64.679688 L 145.285156 314.792969 L 283.21875 314.792969 C 285.523438 314.792969 287.398438 312.917969 287.398438 310.613281 L 287.398438 250.957031 L 262.144531 250.957031 C 258.765625 250.957031 255.714844 248.917969 254.417969 245.800781 C 253.132812 242.671875 253.839844 239.078125 256.234375 236.6875 C 256.234375 236.6875 278.445312 214.476562 278.445312 214.476562 C 278.445312 214.476562 178.722656 214.476562 178.722656 214.476562 C 169.484375 214.476562 162.003906 206.992188 162.003906 197.757812 L 162.003906 181.039062 C 162.003906 171.800781 169.484375 164.316406 178.722656 164.316406 L 278.445312 164.316406 L 256.234375 142.105469 C 253.839844 139.714844 253.132812 136.121094 254.417969 132.996094 C 255.714844 129.875 258.765625 127.835938 262.144531 127.835938 L 287.398438 127.835938 L 287.398438 26.382812 C 287.398438 24.078125 285.523438 22.203125 283.21875 22.203125 Z M 63.042969 22.203125 " fill-opacity="1" fill-rule="evenodd"/></g></svg>