<svg xmlns="http://www.w3.org/2000/svg" xmlns:xlink="http://www.w3.org/1999/xlink" width="500" zoomAndPan="magnify" viewBox="0 0 375 374.999991" height="500" preserveAspectRatio="xMidYMid meet" version="1.0"><defs><clipPath id="f38a3c585b"><path d="M 36.09375 203 L 339 203 L 339 375 L 36.09375 375 Z M 36.09375 203 " clip-rule="nonzero"/></clipPath></defs><path fill="#ffffff" d="M 187.472656 188.082031 C 189.011719 188.082031 190.550781 188.046875 192.089844 187.96875 C 193.628906 187.894531 195.164062 187.78125 196.695312 187.628906 C 198.226562 187.480469 199.753906 187.292969 201.277344 187.066406 C 202.800781 186.839844 204.316406 186.578125 205.828125 186.277344 C 207.335938 185.976562 208.839844 185.636719 210.332031 185.265625 C 211.828125 184.890625 213.308594 184.480469 214.785156 184.03125 C 216.257812 183.585938 217.71875 183.101562 219.167969 182.585938 C 220.617188 182.066406 222.054688 181.511719 223.476562 180.921875 C 224.898438 180.332031 226.304688 179.710938 227.699219 179.050781 C 229.089844 178.394531 230.464844 177.699219 231.820312 176.976562 C 233.179688 176.25 234.519531 175.492188 235.839844 174.699219 C 237.160156 173.90625 238.460938 173.082031 239.742188 172.226562 C 241.019531 171.371094 242.28125 170.488281 243.515625 169.570312 C 244.753906 168.652344 245.964844 167.707031 247.15625 166.726562 C 248.347656 165.75 249.511719 164.746094 250.652344 163.710938 C 251.792969 162.679688 252.910156 161.617188 253.996094 160.527344 C 255.085938 159.441406 256.148438 158.324219 257.183594 157.183594 C 258.214844 156.042969 259.222656 154.878906 260.199219 153.6875 C 261.175781 152.496094 262.121094 151.285156 263.039062 150.046875 C 263.957031 148.8125 264.84375 147.550781 265.699219 146.273438 C 266.554688 144.992188 267.375 143.691406 268.167969 142.371094 C 268.960938 141.050781 269.71875 139.710938 270.445312 138.351562 C 271.167969 136.996094 271.863281 135.621094 272.519531 134.226562 C 273.179688 132.835938 273.800781 131.429688 274.390625 130.007812 C 274.980469 128.585938 275.535156 127.148438 276.054688 125.699219 C 276.570312 124.25 277.054688 122.789062 277.5 121.3125 C 277.949219 119.839844 278.359375 118.355469 278.734375 116.863281 C 279.105469 115.371094 279.445312 113.867188 279.746094 112.359375 C 280.046875 110.847656 280.308594 109.332031 280.535156 107.808594 C 280.761719 106.285156 280.949219 104.757812 281.101562 103.226562 C 281.25 101.695312 281.363281 100.160156 281.4375 98.621094 C 281.515625 97.082031 281.550781 95.542969 281.550781 94.003906 C 281.550781 92.464844 281.515625 90.925781 281.4375 89.386719 C 281.363281 87.851562 281.25 86.316406 281.101562 84.785156 C 280.949219 83.25 280.761719 81.722656 280.535156 80.199219 C 280.308594 78.675781 280.046875 77.160156 279.746094 75.652344 C 279.445312 74.140625 279.109375 72.640625 278.734375 71.144531 C 278.359375 69.652344 277.949219 68.167969 277.5 66.695312 C 277.054688 65.222656 276.570312 63.761719 276.054688 62.3125 C 275.535156 60.859375 274.980469 59.425781 274.390625 58.003906 C 273.800781 56.582031 273.179688 55.171875 272.519531 53.78125 C 271.863281 52.390625 271.171875 51.015625 270.445312 49.65625 C 269.71875 48.296875 268.960938 46.960938 268.167969 45.640625 C 267.375 44.316406 266.554688 43.019531 265.699219 41.738281 C 264.84375 40.457031 263.957031 39.199219 263.039062 37.960938 C 262.121094 36.726562 261.175781 35.511719 260.199219 34.320312 C 259.222656 33.132812 258.214844 31.964844 257.183594 30.824219 C 256.148438 29.683594 255.085938 28.570312 254 27.480469 C 252.910156 26.390625 251.796875 25.332031 250.652344 24.296875 C 249.511719 23.261719 248.347656 22.257812 247.15625 21.28125 C 245.96875 20.304688 244.753906 19.355469 243.515625 18.441406 C 242.28125 17.523438 241.023438 16.636719 239.742188 15.78125 C 238.460938 14.925781 237.160156 14.101562 235.839844 13.3125 C 234.519531 12.519531 233.179688 11.761719 231.824219 11.035156 C 230.464844 10.308594 229.089844 9.617188 227.699219 8.957031 C 226.308594 8.300781 224.898438 7.675781 223.476562 7.085938 C 222.054688 6.5 220.617188 5.945312 219.167969 5.425781 C 217.71875 4.90625 216.257812 4.425781 214.785156 3.976562 C 213.3125 3.53125 211.828125 3.121094 210.335938 2.746094 C 208.839844 2.371094 207.339844 2.035156 205.828125 1.734375 C 204.320312 1.433594 202.800781 1.171875 201.28125 0.945312 C 199.757812 0.71875 198.230469 0.53125 196.695312 0.378906 C 195.164062 0.226562 193.628906 0.113281 192.089844 0.0390625 C 190.554688 -0.0351562 189.015625 -0.0742188 187.476562 -0.0742188 C 185.933594 -0.0742188 184.398438 -0.0351562 182.859375 0.0390625 C 181.320312 0.113281 179.785156 0.226562 178.253906 0.378906 C 176.722656 0.527344 175.195312 0.71875 173.671875 0.945312 C 172.148438 1.167969 170.632812 1.433594 169.121094 1.734375 C 167.609375 2.035156 166.109375 2.371094 164.617188 2.746094 C 163.121094 3.117188 161.640625 3.527344 160.164062 3.976562 C 158.691406 4.421875 157.230469 4.90625 155.78125 5.425781 C 154.332031 5.941406 152.894531 6.496094 151.472656 7.085938 C 150.050781 7.675781 148.644531 8.300781 147.25 8.957031 C 145.859375 9.617188 144.484375 10.308594 143.125 11.035156 C 141.769531 11.757812 140.429688 12.519531 139.109375 13.308594 C 137.789062 14.101562 136.488281 14.925781 135.207031 15.78125 C 133.925781 16.636719 132.667969 17.519531 131.433594 18.4375 C 130.195312 19.355469 128.980469 20.300781 127.792969 21.277344 C 126.601562 22.257812 125.4375 23.261719 124.296875 24.296875 C 123.15625 25.328125 122.039062 26.390625 120.949219 27.480469 C 119.863281 28.566406 118.800781 29.683594 117.765625 30.824219 C 116.734375 31.964844 115.726562 33.128906 114.75 34.320312 C 113.773438 35.511719 112.828125 36.722656 111.910156 37.960938 C 110.992188 39.195312 110.105469 40.457031 109.25 41.734375 C 108.394531 43.015625 107.570312 44.316406 106.78125 45.636719 C 105.988281 46.957031 105.230469 48.296875 104.503906 49.652344 C 103.777344 51.011719 103.085938 52.386719 102.429688 53.777344 C 101.769531 55.171875 101.144531 56.578125 100.558594 58 C 99.96875 59.421875 99.414062 60.859375 98.894531 62.308594 C 98.375 63.757812 97.894531 65.21875 97.445312 66.691406 C 97 68.167969 96.589844 69.648438 96.214844 71.144531 C 95.839844 72.636719 95.503906 74.136719 95.203125 75.648438 C 94.902344 77.160156 94.640625 78.675781 94.414062 80.199219 C 94.1875 81.722656 94 83.25 93.847656 84.78125 C 93.695312 86.3125 93.582031 87.847656 93.507812 89.386719 C 93.433594 90.921875 93.394531 92.460938 93.394531 94.003906 C 93.394531 95.542969 93.4375 97.078125 93.511719 98.617188 C 93.589844 100.15625 93.703125 101.6875 93.855469 103.21875 C 94.007812 104.753906 94.199219 106.277344 94.425781 107.800781 C 94.652344 109.324219 94.917969 110.839844 95.21875 112.347656 C 95.519531 113.859375 95.859375 115.359375 96.234375 116.851562 C 96.609375 118.34375 97.019531 119.828125 97.46875 121.300781 C 97.917969 122.773438 98.398438 124.234375 98.917969 125.683594 C 99.4375 127.132812 99.992188 128.566406 100.582031 129.988281 C 101.171875 131.410156 101.796875 132.816406 102.457031 134.207031 C 103.113281 135.597656 103.808594 136.972656 104.535156 138.332031 C 105.257812 139.6875 106.019531 141.027344 106.808594 142.347656 C 107.601562 143.667969 108.425781 144.964844 109.28125 146.246094 C 110.136719 147.527344 111.023438 148.785156 111.941406 150.019531 C 112.855469 151.253906 113.804688 152.46875 114.78125 153.660156 C 115.757812 154.847656 116.761719 156.011719 117.796875 157.152344 C 118.832031 158.292969 119.890625 159.410156 120.980469 160.496094 C 122.066406 161.585938 123.183594 162.644531 124.324219 163.679688 C 125.464844 164.714844 126.628906 165.71875 127.816406 166.695312 C 129.007812 167.671875 130.21875 168.621094 131.457031 169.535156 C 132.691406 170.453125 133.949219 171.339844 135.230469 172.195312 C 136.511719 173.050781 137.808594 173.875 139.128906 174.667969 C 140.449219 175.457031 141.789062 176.21875 143.144531 176.945312 C 144.503906 177.667969 145.875 178.363281 147.269531 179.019531 C 148.660156 179.679688 150.066406 180.304688 151.488281 180.894531 C 152.910156 181.484375 154.34375 182.039062 155.792969 182.558594 C 157.242188 183.078125 158.703125 183.5625 160.175781 184.007812 C 161.648438 184.457031 163.128906 184.867188 164.625 185.242188 C 166.117188 185.617188 167.617188 185.957031 169.125 186.257812 C 170.636719 186.558594 172.152344 186.824219 173.675781 187.050781 C 175.195312 187.277344 176.722656 187.46875 178.253906 187.621094 C 179.785156 187.773438 181.320312 187.886719 182.859375 187.964844 C 184.394531 188.042969 185.933594 188.082031 187.472656 188.082031 Z M 187.472656 16.195312 C 188.746094 16.195312 190.019531 16.226562 191.292969 16.289062 C 192.5625 16.351562 193.832031 16.445312 195.101562 16.570312 C 196.367188 16.695312 197.632812 16.851562 198.890625 17.039062 C 200.152344 17.226562 201.40625 17.441406 202.652344 17.691406 C 203.902344 17.9375 205.144531 18.21875 206.378906 18.527344 C 207.617188 18.835938 208.84375 19.175781 210.0625 19.546875 C 211.28125 19.914062 212.488281 20.316406 213.6875 20.746094 C 214.886719 21.171875 216.074219 21.632812 217.25 22.117188 C 218.425781 22.605469 219.589844 23.121094 220.742188 23.667969 C 221.894531 24.210938 223.03125 24.78125 224.152344 25.382812 C 225.277344 25.984375 226.386719 26.609375 227.476562 27.265625 C 228.570312 27.921875 229.644531 28.601562 230.703125 29.308594 C 231.761719 30.015625 232.804688 30.75 233.828125 31.507812 C 234.847656 32.265625 235.851562 33.050781 236.835938 33.859375 C 237.820312 34.664062 238.785156 35.496094 239.730469 36.351562 C 240.671875 37.207031 241.59375 38.085938 242.496094 38.984375 C 243.394531 39.886719 244.273438 40.808594 245.128906 41.75 C 245.984375 42.695312 246.816406 43.660156 247.625 44.644531 C 248.433594 45.628906 249.214844 46.632812 249.972656 47.65625 C 250.730469 48.675781 251.464844 49.71875 252.171875 50.777344 C 252.878906 51.835938 253.5625 52.910156 254.214844 54.003906 C 254.871094 55.097656 255.5 56.203125 256.097656 57.328125 C 256.699219 58.449219 257.269531 59.585938 257.816406 60.738281 C 258.359375 61.890625 258.875 63.054688 259.363281 64.230469 C 259.851562 65.40625 260.308594 66.59375 260.738281 67.792969 C 261.167969 68.992188 261.566406 70.199219 261.9375 71.417969 C 262.304688 72.636719 262.644531 73.863281 262.953125 75.101562 C 263.265625 76.335938 263.542969 77.578125 263.792969 78.828125 C 264.039062 80.074219 264.257812 81.328125 264.445312 82.589844 C 264.632812 83.847656 264.789062 85.113281 264.910156 86.378906 C 265.035156 87.648438 265.128906 88.917969 265.191406 90.1875 C 265.253906 91.460938 265.285156 92.734375 265.285156 94.007812 C 265.285156 95.28125 265.253906 96.554688 265.191406 97.824219 C 265.128906 99.097656 265.035156 100.367188 264.910156 101.632812 C 264.789062 102.902344 264.632812 104.164062 264.445312 105.425781 C 264.257812 106.683594 264.039062 107.9375 263.792969 109.1875 C 263.542969 110.4375 263.265625 111.679688 262.953125 112.914062 C 262.644531 114.148438 262.304688 115.375 261.9375 116.59375 C 261.566406 117.8125 261.167969 119.023438 260.738281 120.222656 C 260.308594 121.421875 259.851562 122.609375 259.363281 123.785156 C 258.875 124.960938 258.359375 126.125 257.816406 127.277344 C 257.269531 128.425781 256.699219 129.5625 256.097656 130.6875 C 255.5 131.808594 254.871094 132.917969 254.214844 134.011719 C 253.5625 135.101562 252.878906 136.179688 252.171875 137.238281 C 251.464844 138.296875 250.730469 139.335938 249.972656 140.359375 C 249.214844 141.382812 248.429688 142.386719 247.625 143.371094 C 246.816406 144.355469 245.984375 145.320312 245.128906 146.261719 C 244.273438 147.207031 243.394531 148.128906 242.496094 149.027344 C 241.59375 149.929688 240.671875 150.804688 239.730469 151.660156 C 238.785156 152.515625 237.820312 153.347656 236.835938 154.15625 C 235.851562 154.964844 234.847656 155.746094 233.828125 156.507812 C 232.804688 157.265625 231.761719 157.996094 230.703125 158.703125 C 229.644531 159.414062 228.570312 160.09375 227.476562 160.75 C 226.386719 161.402344 225.277344 162.03125 224.152344 162.628906 C 223.03125 163.230469 221.894531 163.804688 220.742188 164.347656 C 219.589844 164.890625 218.425781 165.40625 217.25 165.894531 C 216.074219 166.382812 214.886719 166.839844 213.6875 167.269531 C 212.488281 167.699219 211.28125 168.097656 210.0625 168.46875 C 208.84375 168.835938 207.617188 169.175781 206.378906 169.484375 C 205.144531 169.796875 203.902344 170.074219 202.652344 170.324219 C 201.40625 170.570312 200.152344 170.789062 198.890625 170.976562 C 197.632812 171.164062 196.367188 171.320312 195.101562 171.441406 C 193.832031 171.566406 192.5625 171.660156 191.292969 171.722656 C 190.019531 171.785156 188.746094 171.816406 187.472656 171.816406 C 186.199219 171.816406 184.925781 171.785156 183.65625 171.722656 C 182.382812 171.660156 181.113281 171.566406 179.847656 171.441406 C 178.578125 171.316406 177.316406 171.160156 176.054688 170.976562 C 174.796875 170.789062 173.542969 170.570312 172.292969 170.320312 C 171.042969 170.074219 169.800781 169.792969 168.566406 169.484375 C 167.332031 169.175781 166.105469 168.835938 164.886719 168.464844 C 163.667969 168.097656 162.457031 167.699219 161.257812 167.269531 C 160.0625 166.839844 158.871094 166.382812 157.695312 165.894531 C 156.519531 165.40625 155.355469 164.890625 154.203125 164.347656 C 153.054688 163.800781 151.917969 163.230469 150.792969 162.628906 C 149.671875 162.027344 148.5625 161.402344 147.46875 160.746094 C 146.378906 160.089844 145.300781 159.410156 144.242188 158.703125 C 143.183594 157.996094 142.144531 157.261719 141.121094 156.503906 C 140.097656 155.746094 139.09375 154.960938 138.109375 154.152344 C 137.125 153.34375 136.164062 152.515625 135.21875 151.660156 C 134.273438 150.804688 133.351562 149.925781 132.453125 149.023438 C 131.550781 148.125 130.675781 147.203125 129.820312 146.257812 C 128.964844 145.316406 128.132812 144.351562 127.324219 143.367188 C 126.515625 142.382812 125.734375 141.378906 124.976562 140.355469 C 124.21875 139.332031 123.484375 138.292969 122.777344 137.234375 C 122.070312 136.175781 121.386719 135.097656 120.734375 134.007812 C 120.078125 132.914062 119.453125 131.804688 118.851562 130.683594 C 118.25 129.558594 117.679688 128.421875 117.132812 127.273438 C 116.589844 126.121094 116.074219 124.957031 115.585938 123.78125 C 115.097656 122.601562 114.640625 121.414062 114.210938 120.214844 C 113.785156 119.019531 113.382812 117.808594 113.015625 116.589844 C 112.644531 115.371094 112.304688 114.144531 111.996094 112.910156 C 111.6875 111.675781 111.40625 110.433594 111.160156 109.183594 C 110.910156 107.933594 110.695312 106.679688 110.507812 105.417969 C 110.320312 104.160156 110.164062 102.898438 110.039062 101.628906 C 109.914062 100.363281 109.820312 99.09375 109.757812 97.820312 C 109.695312 96.546875 109.664062 95.277344 109.664062 94.003906 C 109.667969 92.730469 109.699219 91.457031 109.761719 90.1875 C 109.828125 88.914062 109.921875 87.644531 110.046875 86.378906 C 110.175781 85.113281 110.332031 83.847656 110.519531 82.589844 C 110.707031 81.332031 110.925781 80.078125 111.175781 78.828125 C 111.425781 77.582031 111.703125 76.339844 112.015625 75.105469 C 112.324219 73.871094 112.664062 72.644531 113.035156 71.425781 C 113.40625 70.207031 113.804688 69 114.234375 67.800781 C 114.664062 66.601562 115.125 65.417969 115.613281 64.242188 C 116.101562 63.066406 116.617188 61.902344 117.160156 60.75 C 117.707031 59.601562 118.277344 58.464844 118.878906 57.339844 C 119.480469 56.21875 120.105469 55.113281 120.761719 54.019531 C 121.417969 52.929688 122.097656 51.855469 122.804688 50.796875 C 123.511719 49.738281 124.246094 48.699219 125.003906 47.675781 C 125.761719 46.652344 126.546875 45.648438 127.355469 44.664062 C 128.160156 43.683594 128.992188 42.71875 129.847656 41.773438 C 130.703125 40.832031 131.582031 39.910156 132.480469 39.011719 C 133.382812 38.109375 134.304688 37.234375 135.246094 36.378906 C 136.1875 35.523438 137.152344 34.691406 138.136719 33.882812 C 139.121094 33.074219 140.125 32.292969 141.144531 31.535156 C 142.167969 30.777344 143.207031 30.042969 144.265625 29.335938 C 145.324219 28.628906 146.398438 27.945312 147.492188 27.292969 C 148.582031 26.636719 149.691406 26.007812 150.8125 25.410156 C 151.933594 24.808594 153.070312 24.234375 154.222656 23.691406 C 155.371094 23.144531 156.535156 22.628906 157.710938 22.140625 C 158.886719 21.652344 160.074219 21.195312 161.273438 20.765625 C 162.472656 20.335938 163.679688 19.9375 164.898438 19.566406 C 166.113281 19.195312 167.339844 18.855469 168.574219 18.546875 C 169.808594 18.234375 171.050781 17.953125 172.300781 17.707031 C 173.546875 17.457031 174.800781 17.238281 176.0625 17.050781 C 177.320312 16.863281 178.582031 16.703125 179.851562 16.578125 C 181.117188 16.453125 182.386719 16.359375 183.65625 16.292969 C 184.929688 16.230469 186.199219 16.199219 187.472656 16.195312 Z M 187.472656 16.195312 " fill-opacity="1" fill-rule="nonzero"/><g clip-path="url(#f38a3c585b)"><path fill="#ffffff" d="M 187.472656 203.078125 C 185.003906 203.078125 182.539062 203.140625 180.074219 203.265625 C 177.609375 203.390625 175.148438 203.574219 172.695312 203.816406 C 170.238281 204.0625 167.789062 204.367188 165.347656 204.730469 C 162.910156 205.09375 160.476562 205.519531 158.058594 206.003906 C 155.636719 206.484375 153.230469 207.027344 150.839844 207.628906 C 148.445312 208.230469 146.066406 208.890625 143.707031 209.609375 C 141.34375 210.328125 139.003906 211.101562 136.679688 211.933594 C 134.359375 212.769531 132.054688 213.65625 129.777344 214.601562 C 127.496094 215.546875 125.242188 216.550781 123.011719 217.605469 C 120.78125 218.660156 118.578125 219.773438 116.402344 220.9375 C 114.226562 222.101562 112.082031 223.316406 109.964844 224.585938 C 107.847656 225.855469 105.765625 227.175781 103.710938 228.546875 C 101.660156 229.921875 99.644531 231.339844 97.664062 232.8125 C 95.679688 234.28125 93.734375 235.800781 91.828125 237.367188 C 89.921875 238.933594 88.054688 240.542969 86.226562 242.199219 C 84.394531 243.859375 82.609375 245.558594 80.863281 247.304688 C 79.121094 249.050781 77.417969 250.835938 75.761719 252.664062 C 74.105469 254.492188 72.492188 256.359375 70.925781 258.269531 C 69.359375 260.175781 67.84375 262.121094 66.371094 264.101562 C 64.902344 266.082031 63.480469 268.101562 62.109375 270.152344 C 60.738281 272.203125 59.417969 274.289062 58.148438 276.402344 C 56.878906 278.519531 55.660156 280.664062 54.496094 282.84375 C 53.332031 285.019531 52.222656 287.222656 51.164062 289.453125 C 50.109375 291.683594 49.109375 293.9375 48.164062 296.214844 C 47.21875 298.496094 46.328125 300.796875 45.496094 303.121094 C 44.660156 305.441406 43.886719 307.785156 43.167969 310.144531 C 42.449219 312.507812 41.789062 314.882812 41.1875 317.277344 C 40.585938 319.671875 40.046875 322.078125 39.5625 324.496094 C 39.078125 326.917969 38.652344 329.347656 38.289062 331.789062 C 37.925781 334.230469 37.621094 336.675781 37.375 339.132812 C 37.132812 341.589844 36.949219 344.050781 36.824219 346.515625 C 36.703125 348.976562 36.636719 351.445312 36.636719 353.914062 C 36.636719 354.605469 36.667969 355.292969 36.734375 355.980469 C 36.804688 356.667969 36.90625 357.351562 37.039062 358.03125 C 37.171875 358.707031 37.339844 359.378906 37.542969 360.039062 C 37.742188 360.703125 37.976562 361.351562 38.238281 361.992188 C 38.503906 362.628906 38.800781 363.253906 39.125 363.863281 C 39.449219 364.472656 39.804688 365.066406 40.1875 365.640625 C 40.574219 366.214844 40.984375 366.769531 41.421875 367.304688 C 41.863281 367.839844 42.324219 368.351562 42.816406 368.839844 C 43.304688 369.328125 43.816406 369.792969 44.347656 370.230469 C 44.882812 370.667969 45.4375 371.078125 46.011719 371.464844 C 46.589844 371.847656 47.179688 372.203125 47.789062 372.527344 C 48.398438 372.855469 49.023438 373.148438 49.664062 373.414062 C 50.300781 373.679688 50.953125 373.910156 51.613281 374.109375 C 52.277344 374.3125 52.945312 374.480469 53.625 374.613281 C 54.300781 374.746094 54.984375 374.847656 55.671875 374.917969 C 56.359375 374.984375 57.050781 375.015625 57.742188 375.015625 L 317.191406 375.015625 C 318.828125 375.011719 320.441406 374.820312 322.03125 374.445312 C 323.625 374.066406 325.152344 373.511719 326.613281 372.78125 C 328.078125 372.050781 329.4375 371.164062 330.699219 370.117188 C 331.957031 369.070312 333.078125 367.898438 334.066406 366.59375 C 335.445312 364.765625 336.496094 362.765625 337.222656 360.597656 C 337.945312 358.425781 338.304688 356.195312 338.300781 353.90625 C 338.296875 351.441406 338.234375 348.972656 338.109375 346.507812 C 337.988281 344.042969 337.800781 341.585938 337.558594 339.128906 C 337.3125 336.671875 337.007812 334.226562 336.644531 331.785156 C 336.28125 329.34375 335.855469 326.914062 335.375 324.496094 C 334.890625 322.074219 334.347656 319.667969 333.746094 317.273438 C 333.144531 314.882812 332.484375 312.503906 331.765625 310.144531 C 331.046875 307.78125 330.273438 305.441406 329.441406 303.117188 C 328.609375 300.796875 327.71875 298.496094 326.773438 296.214844 C 325.828125 293.9375 324.828125 291.679688 323.769531 289.449219 C 322.714844 287.21875 321.605469 285.019531 320.441406 282.84375 C 319.277344 280.667969 318.058594 278.519531 316.789062 276.402344 C 315.519531 274.289062 314.199219 272.203125 312.828125 270.152344 C 311.457031 268.101562 310.035156 266.085938 308.566406 264.101562 C 307.09375 262.121094 305.578125 260.175781 304.011719 258.269531 C 302.445312 256.363281 300.835938 254.496094 299.175781 252.667969 C 297.519531 250.835938 295.820312 249.050781 294.074219 247.304688 C 292.328125 245.5625 290.542969 243.859375 288.714844 242.203125 C 286.886719 240.546875 285.019531 238.933594 283.109375 237.367188 C 281.203125 235.800781 279.257812 234.285156 277.277344 232.8125 C 275.296875 231.34375 273.277344 229.921875 271.226562 228.550781 C 269.175781 227.179688 267.09375 225.859375 264.976562 224.589844 C 262.859375 223.320312 260.714844 222.101562 258.539062 220.9375 C 256.363281 219.773438 254.160156 218.664062 251.929688 217.609375 C 249.699219 216.550781 247.445312 215.550781 245.164062 214.605469 C 242.886719 213.660156 240.585938 212.769531 238.261719 211.9375 C 235.941406 211.105469 233.597656 210.328125 231.238281 209.609375 C 228.875 208.894531 226.5 208.234375 224.105469 207.632812 C 221.714844 207.03125 219.304688 206.488281 216.886719 206.003906 C 214.46875 205.519531 212.035156 205.097656 209.597656 204.730469 C 207.15625 204.367188 204.707031 204.0625 202.25 203.820312 C 199.796875 203.574219 197.335938 203.390625 194.871094 203.265625 C 192.40625 203.144531 189.941406 203.078125 187.472656 203.078125 Z M 321.074219 356.824219 C 320.617188 357.433594 320.046875 357.90625 319.367188 358.242188 C 318.683594 358.582031 317.960938 358.75 317.199219 358.746094 L 57.75 358.746094 C 56.898438 358.75 56.101562 358.542969 55.359375 358.121094 C 54.617188 357.699219 54.027344 357.121094 53.59375 356.386719 C 53.132812 355.625 52.90625 354.796875 52.914062 353.90625 C 52.921875 351.710938 52.984375 349.515625 53.101562 347.324219 C 53.21875 345.128906 53.390625 342.941406 53.613281 340.757812 C 53.835938 338.570312 54.113281 336.394531 54.445312 334.222656 C 54.777344 332.050781 55.160156 329.886719 55.59375 327.734375 C 56.03125 325.582031 56.519531 323.441406 57.0625 321.3125 C 57.605469 319.183594 58.195312 317.070312 58.839844 314.972656 C 59.484375 312.871094 60.183594 310.789062 60.929688 308.722656 C 61.675781 306.660156 62.472656 304.613281 63.320312 302.585938 C 64.167969 300.558594 65.0625 298.554688 66.007812 296.570312 C 66.953125 294.589844 67.945312 292.632812 68.988281 290.699219 C 70.027344 288.761719 71.113281 286.855469 72.25 284.976562 C 73.382812 283.09375 74.5625 281.242188 75.789062 279.417969 C 77.015625 277.597656 78.28125 275.804688 79.59375 274.042969 C 80.910156 272.28125 82.261719 270.554688 83.660156 268.859375 C 85.058594 267.167969 86.496094 265.507812 87.976562 263.882812 C 89.453125 262.257812 90.972656 260.671875 92.527344 259.121094 C 94.082031 257.574219 95.675781 256.0625 97.308594 254.589844 C 98.9375 253.117188 100.601562 251.6875 102.304688 250.296875 C 104.003906 248.90625 105.738281 247.558594 107.503906 246.253906 C 109.269531 244.949219 111.066406 243.6875 112.894531 242.46875 C 114.722656 241.253906 116.582031 240.082031 118.464844 238.953125 C 120.351562 237.828125 122.261719 236.746094 124.203125 235.714844 C 126.140625 234.683594 128.101562 233.699219 130.089844 232.761719 C 132.074219 231.824219 134.085938 230.9375 136.113281 230.097656 C 138.144531 229.261719 140.195312 228.472656 142.261719 227.734375 C 144.332031 226.996094 146.417969 226.308594 148.519531 225.671875 C 150.621094 225.035156 152.738281 224.453125 154.867188 223.921875 C 157 223.386719 159.140625 222.910156 161.296875 222.480469 C 163.449219 222.054688 165.613281 221.679688 167.789062 221.359375 C 169.960938 221.035156 172.140625 220.769531 174.324219 220.554688 C 176.511719 220.339844 178.699219 220.179688 180.894531 220.070312 C 183.089844 219.964844 185.28125 219.910156 187.480469 219.910156 C 189.675781 219.910156 191.871094 219.964844 194.066406 220.070312 C 196.257812 220.179688 198.449219 220.339844 200.632812 220.554688 C 202.820312 220.769531 205 221.035156 207.171875 221.359375 C 209.34375 221.679688 211.507812 222.054688 213.664062 222.480469 C 215.816406 222.910156 217.960938 223.386719 220.089844 223.921875 C 222.222656 224.453125 224.339844 225.035156 226.441406 225.671875 C 228.542969 226.308594 230.628906 226.996094 232.695312 227.734375 C 234.765625 228.472656 236.816406 229.261719 238.84375 230.097656 C 240.875 230.9375 242.882812 231.824219 244.871094 232.761719 C 246.855469 233.699219 248.820312 234.683594 250.757812 235.714844 C 252.695312 236.746094 254.609375 237.828125 256.492188 238.953125 C 258.378906 240.082031 260.234375 241.253906 262.0625 242.46875 C 263.890625 243.6875 265.6875 244.949219 267.457031 246.253906 C 269.222656 247.558594 270.957031 248.90625 272.65625 250.296875 C 274.355469 251.6875 276.019531 253.117188 277.652344 254.589844 C 279.28125 256.0625 280.875 257.574219 282.433594 259.121094 C 283.988281 260.671875 285.503906 262.257812 286.984375 263.882812 C 288.464844 265.507812 289.902344 267.167969 291.296875 268.859375 C 292.695312 270.554688 294.050781 272.28125 295.363281 274.042969 C 296.675781 275.804688 297.945312 277.597656 299.171875 279.417969 C 300.394531 281.242188 301.574219 283.09375 302.710938 284.976562 C 303.84375 286.855469 304.933594 288.761719 305.972656 290.699219 C 307.011719 292.632812 308.007812 294.589844 308.953125 296.574219 C 309.898438 298.554688 310.792969 300.558594 311.640625 302.585938 C 312.488281 304.613281 313.285156 306.660156 314.03125 308.722656 C 314.777344 310.789062 315.472656 312.871094 316.117188 314.972656 C 316.761719 317.070312 317.355469 319.183594 317.898438 321.3125 C 318.4375 323.441406 318.925781 325.582031 319.363281 327.734375 C 319.800781 329.886719 320.183594 332.050781 320.515625 334.222656 C 320.84375 336.394531 321.121094 338.570312 321.347656 340.757812 C 321.570312 342.941406 321.738281 345.128906 321.855469 347.324219 C 321.972656 349.515625 322.035156 351.710938 322.046875 353.90625 C 322.042969 354.984375 321.71875 355.953125 321.066406 356.8125 Z M 321.074219 356.824219 " fill-opacity="1" fill-rule="nonzero"/></g></svg>