<svg xmlns="http://www.w3.org/2000/svg" xmlns:xlink="http://www.w3.org/1999/xlink" width="500" zoomAndPan="magnify" viewBox="0 0 375 374.999991" height="500" preserveAspectRatio="xMidYMid meet" version="1.0"><path fill="#ffffff" d="M 134.078125 184.613281 C 135.179688 184.605469 136.28125 184.566406 137.382812 184.503906 C 138.480469 184.441406 139.578125 184.351562 140.675781 184.234375 C 141.769531 184.117188 142.863281 183.972656 143.953125 183.800781 C 145.039062 183.628906 146.125 183.433594 147.203125 183.210938 C 148.28125 182.988281 149.355469 182.738281 150.421875 182.460938 C 151.488281 182.183594 152.546875 181.882812 153.601562 181.554688 C 154.652344 181.226562 155.695312 180.875 156.730469 180.496094 C 157.765625 180.117188 158.789062 179.714844 159.804688 179.285156 C 160.820312 178.859375 161.824219 178.40625 162.816406 177.925781 C 163.808594 177.449219 164.789062 176.949219 165.757812 176.421875 C 166.726562 175.898438 167.683594 175.347656 168.625 174.777344 C 169.566406 174.203125 170.492188 173.609375 171.40625 172.992188 C 172.320312 172.375 173.214844 171.734375 174.097656 171.074219 C 174.980469 170.414062 175.84375 169.730469 176.691406 169.027344 C 177.539062 168.324219 178.371094 167.601562 179.183594 166.855469 C 179.996094 166.113281 180.789062 165.351562 181.566406 164.566406 C 182.34375 163.785156 183.097656 162.984375 183.835938 162.164062 C 184.570312 161.34375 185.285156 160.507812 185.984375 159.652344 C 186.679688 158.796875 187.351562 157.925781 188.003906 157.039062 C 188.660156 156.152344 189.289062 155.25 189.898438 154.332031 C 190.507812 153.414062 191.09375 152.480469 191.65625 151.535156 C 192.222656 150.585938 192.761719 149.625 193.277344 148.652344 C 193.792969 147.679688 194.289062 146.695312 194.757812 145.699219 C 195.226562 144.699219 195.667969 143.691406 196.089844 142.671875 C 196.507812 141.65625 196.902344 140.625 197.269531 139.585938 C 197.640625 138.550781 197.984375 137.503906 198.300781 136.449219 C 198.621094 135.394531 198.910156 134.332031 199.179688 133.261719 C 199.445312 132.191406 199.683594 131.117188 199.898438 130.035156 C 200.113281 128.957031 200.300781 127.871094 200.460938 126.78125 C 200.621094 125.691406 200.753906 124.597656 200.863281 123.5 C 200.96875 122.402344 201.050781 121.304688 201.105469 120.203125 C 201.15625 119.105469 201.183594 118.003906 201.183594 116.902344 C 201.183594 115.796875 201.15625 114.699219 201.105469 113.597656 C 201.050781 112.496094 200.96875 111.398438 200.863281 110.300781 C 200.753906 109.203125 200.621094 108.109375 200.460938 107.019531 C 200.300781 105.929688 200.113281 104.84375 199.898438 103.765625 C 199.683594 102.683594 199.445312 101.609375 199.179688 100.539062 C 198.910156 99.46875 198.621094 98.40625 198.300781 97.351562 C 197.984375 96.296875 197.640625 95.25 197.269531 94.214844 C 196.902344 93.175781 196.507812 92.144531 196.085938 91.128906 C 195.667969 90.109375 195.222656 89.101562 194.753906 88.101562 C 194.289062 87.105469 193.792969 86.121094 193.277344 85.148438 C 192.761719 84.175781 192.222656 83.214844 191.65625 82.265625 C 191.09375 81.320312 190.507812 80.386719 189.898438 79.46875 C 189.289062 78.550781 188.660156 77.648438 188.003906 76.761719 C 187.351562 75.875 186.679688 75.003906 185.980469 74.148438 C 185.285156 73.292969 184.570312 72.457031 183.832031 71.636719 C 183.097656 70.816406 182.339844 70.015625 181.566406 69.234375 C 180.789062 68.449219 179.996094 67.6875 179.183594 66.945312 C 178.371094 66.199219 177.539062 65.476562 176.691406 64.773438 C 175.84375 64.070312 174.976562 63.386719 174.097656 62.726562 C 173.214844 62.066406 172.316406 61.425781 171.40625 60.808594 C 170.492188 60.191406 169.566406 59.597656 168.625 59.023438 C 167.683594 58.453125 166.726562 57.902344 165.757812 57.378906 C 164.789062 56.851562 163.808594 56.351562 162.816406 55.875 C 161.824219 55.394531 160.820312 54.941406 159.804688 54.515625 C 158.789062 54.085938 157.765625 53.683594 156.730469 53.304688 C 155.695312 52.925781 154.652344 52.574219 153.597656 52.246094 C 152.546875 51.917969 151.488281 51.617188 150.421875 51.339844 C 149.355469 51.0625 148.28125 50.8125 147.203125 50.589844 C 146.121094 50.367188 145.039062 50.171875 143.949219 50 C 142.863281 49.828125 141.769531 49.683594 140.675781 49.566406 C 139.578125 49.449219 138.480469 49.359375 137.378906 49.296875 C 136.28125 49.234375 135.179688 49.195312 134.078125 49.1875 C 132.976562 49.195312 131.875 49.234375 130.773438 49.296875 C 129.675781 49.359375 128.578125 49.449219 127.480469 49.566406 C 126.386719 49.683594 125.292969 49.828125 124.207031 50 C 123.117188 50.171875 122.035156 50.367188 120.953125 50.589844 C 119.875 50.816406 118.800781 51.0625 117.734375 51.339844 C 116.667969 51.617188 115.609375 51.917969 114.558594 52.246094 C 113.503906 52.574219 112.460938 52.925781 111.425781 53.304688 C 110.390625 53.683594 109.367188 54.085938 108.351562 54.515625 C 107.335938 54.945312 106.332031 55.398438 105.339844 55.875 C 104.347656 56.351562 103.367188 56.851562 102.398438 57.378906 C 101.429688 57.902344 100.472656 58.453125 99.53125 59.023438 C 98.589844 59.597656 97.664062 60.191406 96.75 60.808594 C 95.839844 61.425781 94.941406 62.066406 94.058594 62.726562 C 93.179688 63.386719 92.3125 64.070312 91.464844 64.773438 C 90.617188 65.476562 89.785156 66.199219 88.972656 66.945312 C 88.160156 67.6875 87.367188 68.453125 86.589844 69.234375 C 85.816406 70.015625 85.058594 70.816406 84.324219 71.636719 C 83.585938 72.457031 82.871094 73.292969 82.175781 74.148438 C 81.480469 75.003906 80.804688 75.875 80.152344 76.761719 C 79.5 77.648438 78.867188 78.550781 78.257812 79.46875 C 77.648438 80.386719 77.0625 81.320312 76.5 82.265625 C 75.9375 83.214844 75.394531 84.175781 74.878906 85.148438 C 74.363281 86.121094 73.871094 87.105469 73.402344 88.101562 C 72.933594 89.101562 72.488281 90.109375 72.070312 91.128906 C 71.648438 92.148438 71.253906 93.175781 70.886719 94.214844 C 70.515625 95.25 70.171875 96.296875 69.855469 97.351562 C 69.539062 98.40625 69.246094 99.46875 68.980469 100.539062 C 68.714844 101.609375 68.472656 102.683594 68.257812 103.765625 C 68.046875 104.84375 67.859375 105.929688 67.699219 107.019531 C 67.535156 108.109375 67.402344 109.203125 67.296875 110.300781 C 67.1875 111.398438 67.105469 112.496094 67.054688 113.597656 C 67 114.699219 66.972656 115.796875 66.972656 116.902344 C 66.972656 118.003906 67 119.105469 67.054688 120.203125 C 67.109375 121.304688 67.1875 122.402344 67.296875 123.5 C 67.402344 124.597656 67.535156 125.691406 67.699219 126.78125 C 67.859375 127.871094 68.046875 128.957031 68.257812 130.035156 C 68.472656 131.117188 68.714844 132.191406 68.980469 133.261719 C 69.246094 134.332031 69.539062 135.394531 69.855469 136.449219 C 70.175781 137.503906 70.519531 138.550781 70.886719 139.589844 C 71.257812 140.625 71.648438 141.65625 72.070312 142.671875 C 72.488281 143.691406 72.933594 144.699219 73.402344 145.699219 C 73.871094 146.695312 74.363281 147.679688 74.878906 148.652344 C 75.394531 149.625 75.9375 150.585938 76.5 151.535156 C 77.0625 152.480469 77.648438 153.414062 78.257812 154.332031 C 78.867188 155.25 79.5 156.152344 80.152344 157.039062 C 80.804688 157.925781 81.480469 158.796875 82.175781 159.652344 C 82.871094 160.507812 83.585938 161.34375 84.324219 162.164062 C 85.058594 162.984375 85.816406 163.785156 86.589844 164.566406 C 87.367188 165.351562 88.160156 166.113281 88.972656 166.855469 C 89.789062 167.601562 90.617188 168.324219 91.464844 169.027344 C 92.3125 169.730469 93.179688 170.414062 94.0625 171.074219 C 94.941406 171.734375 95.839844 172.375 96.75 172.992188 C 97.664062 173.609375 98.59375 174.203125 99.535156 174.777344 C 100.476562 175.347656 101.429688 175.898438 102.398438 176.421875 C 103.367188 176.949219 104.347656 177.449219 105.339844 177.925781 C 106.335938 178.40625 107.339844 178.859375 108.351562 179.285156 C 109.367188 179.714844 110.394531 180.117188 111.429688 180.496094 C 112.464844 180.875 113.507812 181.226562 114.558594 181.554688 C 115.609375 181.882812 116.671875 182.183594 117.738281 182.460938 C 118.804688 182.738281 119.875 182.988281 120.957031 183.210938 C 122.035156 183.433594 123.117188 183.628906 124.207031 183.800781 C 125.296875 183.972656 126.386719 184.117188 127.484375 184.234375 C 128.578125 184.351562 129.675781 184.441406 130.777344 184.503906 C 131.875 184.566406 132.976562 184.605469 134.078125 184.613281 Z M 134.078125 64.941406 C 135.769531 64.960938 137.453125 65.0625 139.132812 65.246094 C 140.8125 65.429688 142.480469 65.691406 144.132812 66.039062 C 145.789062 66.382812 147.421875 66.808594 149.03125 67.316406 C 150.644531 67.820312 152.230469 68.402344 153.785156 69.0625 C 155.339844 69.722656 156.859375 70.457031 158.34375 71.265625 C 159.828125 72.070312 161.269531 72.949219 162.667969 73.898438 C 164.066406 74.847656 165.414062 75.859375 166.714844 76.941406 C 168.015625 78.019531 169.257812 79.164062 170.445312 80.363281 C 171.632812 81.566406 172.761719 82.820312 173.828125 84.132812 C 174.890625 85.445312 175.890625 86.804688 176.824219 88.214844 C 177.757812 89.621094 178.617188 91.074219 179.410156 92.566406 C 180.203125 94.058594 180.917969 95.585938 181.5625 97.148438 C 182.203125 98.710938 182.769531 100.304688 183.253906 101.921875 C 183.742188 103.539062 184.148438 105.175781 184.476562 106.835938 C 184.804688 108.492188 185.050781 110.160156 185.214844 111.84375 C 185.378906 113.523438 185.460938 115.210938 185.460938 116.902344 C 185.460938 118.589844 185.378906 120.277344 185.214844 121.957031 C 185.050781 123.640625 184.804688 125.308594 184.476562 126.964844 C 184.148438 128.625 183.742188 130.261719 183.253906 131.878906 C 182.765625 133.5 182.203125 135.089844 181.558594 136.652344 C 180.917969 138.214844 180.203125 139.742188 179.410156 141.234375 C 178.617188 142.726562 177.757812 144.179688 176.824219 145.589844 C 175.890625 146.996094 174.890625 148.355469 173.824219 149.667969 C 172.761719 150.980469 171.632812 152.234375 170.445312 153.4375 C 169.257812 154.640625 168.011719 155.78125 166.714844 156.859375 C 165.414062 157.941406 164.066406 158.953125 162.667969 159.902344 C 161.269531 160.851562 159.828125 161.730469 158.34375 162.539062 C 156.859375 163.34375 155.339844 164.078125 153.785156 164.738281 C 152.226562 165.398438 150.644531 165.980469 149.03125 166.484375 C 147.417969 166.992188 145.785156 167.417969 144.132812 167.761719 C 142.476562 168.109375 140.8125 168.371094 139.132812 168.554688 C 137.453125 168.738281 135.765625 168.839844 134.078125 168.859375 C 132.386719 168.839844 130.703125 168.738281 129.023438 168.554688 C 127.34375 168.371094 125.675781 168.109375 124.023438 167.761719 C 122.371094 167.417969 120.734375 166.992188 119.125 166.484375 C 117.511719 165.980469 115.925781 165.398438 114.371094 164.738281 C 112.816406 164.078125 111.296875 163.34375 109.8125 162.535156 C 108.328125 161.730469 106.886719 160.851562 105.488281 159.902344 C 104.089844 158.953125 102.742188 157.941406 101.441406 156.859375 C 100.140625 155.777344 98.898438 154.636719 97.710938 153.4375 C 96.523438 152.234375 95.394531 150.980469 94.328125 149.667969 C 93.265625 148.355469 92.265625 146.996094 91.332031 145.585938 C 90.398438 144.179688 89.539062 142.726562 88.746094 141.234375 C 87.953125 139.742188 87.238281 138.214844 86.59375 136.652344 C 85.953125 135.089844 85.390625 133.496094 84.902344 131.878906 C 84.414062 130.261719 84.007812 128.625 83.679688 126.964844 C 83.351562 125.308594 83.105469 123.636719 82.941406 121.957031 C 82.777344 120.273438 82.695312 118.589844 82.695312 116.898438 C 82.695312 115.210938 82.777344 113.523438 82.941406 111.84375 C 83.105469 110.160156 83.351562 108.492188 83.679688 106.832031 C 84.007812 105.175781 84.414062 103.539062 84.902344 101.921875 C 85.390625 100.300781 85.953125 98.710938 86.597656 97.148438 C 87.238281 95.585938 87.957031 94.058594 88.746094 92.566406 C 89.539062 91.070312 90.398438 89.621094 91.332031 88.210938 C 92.265625 86.804688 93.265625 85.445312 94.332031 84.132812 C 95.394531 82.820312 96.523438 81.5625 97.710938 80.363281 C 98.898438 79.160156 100.144531 78.019531 101.441406 76.941406 C 102.742188 75.859375 104.089844 74.847656 105.488281 73.898438 C 106.886719 72.949219 108.328125 72.070312 109.8125 71.261719 C 111.296875 70.457031 112.816406 69.722656 114.371094 69.0625 C 115.929688 68.402344 117.511719 67.820312 119.125 67.316406 C 120.738281 66.808594 122.371094 66.382812 124.023438 66.039062 C 125.679688 65.691406 127.34375 65.429688 129.023438 65.246094 C 130.703125 65.0625 132.390625 64.960938 134.078125 64.941406 Z M 134.078125 64.941406 " fill-opacity="1" fill-rule="nonzero"/><path fill="#ffffff" d="M 153.097656 199.316406 L 105.304688 199.316406 C 103.632812 199.320312 101.964844 199.363281 100.292969 199.445312 C 98.625 199.527344 96.960938 199.652344 95.296875 199.820312 C 93.632812 199.984375 91.976562 200.191406 90.320312 200.4375 C 88.667969 200.683594 87.023438 200.972656 85.382812 201.296875 C 83.746094 201.625 82.113281 201.992188 80.492188 202.398438 C 78.875 202.808594 77.261719 203.253906 75.664062 203.742188 C 74.066406 204.226562 72.480469 204.753906 70.90625 205.316406 C 69.332031 205.878906 67.773438 206.480469 66.230469 207.121094 C 64.6875 207.761719 63.160156 208.441406 61.648438 209.15625 C 60.136719 209.871094 58.644531 210.625 57.171875 211.410156 C 55.699219 212.199219 54.246094 213.023438 52.8125 213.882812 C 51.378906 214.742188 49.96875 215.636719 48.578125 216.566406 C 47.1875 217.496094 45.824219 218.457031 44.480469 219.453125 C 43.136719 220.449219 41.820312 221.480469 40.53125 222.539062 C 39.238281 223.597656 37.972656 224.691406 36.734375 225.8125 C 35.496094 226.9375 34.285156 228.089844 33.105469 229.269531 C 31.921875 230.453125 30.769531 231.660156 29.648438 232.898438 C 28.523438 234.136719 27.433594 235.402344 26.375 236.695312 C 25.3125 237.988281 24.285156 239.304688 23.289062 240.644531 C 22.292969 241.988281 21.332031 243.355469 20.402344 244.742188 C 19.472656 246.132812 18.578125 247.542969 17.71875 248.976562 C 16.859375 250.410156 16.035156 251.863281 15.246094 253.339844 C 14.457031 254.8125 13.707031 256.304688 12.992188 257.816406 C 12.273438 259.324219 11.597656 260.851562 10.957031 262.394531 C 10.316406 263.941406 9.714844 265.5 9.148438 267.070312 C 8.585938 268.644531 8.0625 270.230469 7.574219 271.828125 C 7.089844 273.429688 6.640625 275.039062 6.234375 276.660156 C 5.828125 278.28125 5.460938 279.910156 5.132812 281.550781 C 4.804688 283.1875 4.519531 284.835938 4.269531 286.488281 C 4.023438 288.140625 3.820312 289.800781 3.652344 291.460938 C 3.488281 293.125 3.363281 294.792969 3.28125 296.460938 C 3.195312 298.128906 3.152344 299.800781 3.152344 301.472656 C 3.992188 308.410156 -0.519531 325.273438 11.03125 325.367188 C 11.546875 325.367188 12.058594 325.316406 12.566406 325.21875 C 13.074219 325.117188 13.566406 324.96875 14.046875 324.769531 C 14.523438 324.570312 14.976562 324.328125 15.40625 324.042969 C 15.835938 323.753906 16.234375 323.425781 16.601562 323.0625 C 16.96875 322.695312 17.292969 322.296875 17.582031 321.867188 C 17.867188 321.4375 18.109375 320.984375 18.308594 320.503906 C 18.507812 320.027344 18.65625 319.535156 18.757812 319.027344 C 18.859375 318.519531 18.90625 318.007812 18.90625 317.488281 C 18.667969 315.925781 18.472656 314.359375 18.316406 312.785156 C 18.160156 311.210938 18.046875 309.636719 17.976562 308.058594 C 17.90625 306.480469 17.875 304.898438 17.886719 303.316406 C 17.902344 301.738281 17.957031 300.15625 18.050781 298.582031 C 18.148438 297.003906 18.289062 295.429688 18.46875 293.859375 C 18.648438 292.289062 18.871094 290.722656 19.136719 289.164062 C 19.402344 287.605469 19.707031 286.054688 20.054688 284.515625 C 20.402344 282.972656 20.789062 281.441406 21.214844 279.917969 C 21.644531 278.398438 22.113281 276.886719 22.621094 275.390625 C 23.132812 273.894531 23.679688 272.414062 24.269531 270.945312 C 24.855469 269.476562 25.484375 268.027344 26.148438 266.59375 C 26.8125 265.160156 27.515625 263.746094 28.257812 262.347656 C 28.996094 260.953125 29.773438 259.574219 30.589844 258.222656 C 31.402344 256.867188 32.253906 255.535156 33.136719 254.222656 C 34.023438 252.914062 34.941406 251.628906 35.894531 250.367188 C 36.847656 249.105469 37.835938 247.871094 38.855469 246.664062 C 39.871094 245.457031 40.921875 244.277344 42.007812 243.125 C 43.089844 241.972656 44.199219 240.847656 45.34375 239.753906 C 46.484375 238.664062 47.65625 237.601562 48.851562 236.570312 C 50.050781 235.539062 51.277344 234.542969 52.527344 233.578125 C 53.78125 232.613281 55.058594 231.679688 56.359375 230.78125 C 57.660156 229.886719 58.984375 229.023438 60.332031 228.195312 C 61.679688 227.371094 63.046875 226.582031 64.4375 225.828125 C 65.824219 225.074219 67.234375 224.355469 68.660156 223.679688 C 70.089844 223 71.535156 222.359375 72.996094 221.757812 C 74.457031 221.15625 75.933594 220.59375 77.425781 220.070312 C 78.917969 219.546875 80.421875 219.066406 81.941406 218.621094 C 83.457031 218.179688 84.984375 217.777344 86.523438 217.414062 C 88.0625 217.054688 89.609375 216.734375 91.167969 216.457031 C 92.722656 216.175781 94.285156 215.9375 95.851562 215.742188 C 97.421875 215.546875 98.996094 215.394531 100.570312 215.28125 C 102.148438 215.171875 103.726562 215.101562 105.308594 215.074219 L 153.097656 215.074219 C 154.679688 215.101562 156.257812 215.171875 157.832031 215.28125 C 159.410156 215.394531 160.984375 215.546875 162.550781 215.746094 C 164.121094 215.941406 165.683594 216.175781 167.238281 216.457031 C 168.792969 216.734375 170.339844 217.054688 171.878906 217.417969 C 173.417969 217.777344 174.945312 218.179688 176.464844 218.621094 C 177.980469 219.066406 179.484375 219.546875 180.976562 220.070312 C 182.46875 220.59375 183.945312 221.15625 185.40625 221.757812 C 186.871094 222.359375 188.3125 223 189.742188 223.679688 C 191.167969 224.359375 192.578125 225.074219 193.96875 225.828125 C 195.355469 226.582031 196.726562 227.371094 198.070312 228.199219 C 199.417969 229.023438 200.742188 229.886719 202.042969 230.785156 C 203.347656 231.683594 204.621094 232.613281 205.875 233.578125 C 207.125 234.542969 208.351562 235.542969 209.550781 236.570312 C 210.75 237.601562 211.917969 238.664062 213.058594 239.757812 C 214.203125 240.851562 215.3125 241.972656 216.398438 243.125 C 217.480469 244.277344 218.53125 245.457031 219.546875 246.664062 C 220.566406 247.875 221.554688 249.109375 222.507812 250.371094 C 223.460938 251.628906 224.378906 252.914062 225.265625 254.226562 C 226.148438 255.535156 227 256.867188 227.8125 258.222656 C 228.628906 259.578125 229.40625 260.953125 230.144531 262.347656 C 230.886719 263.746094 231.589844 265.160156 232.253906 266.59375 C 232.917969 268.027344 233.546875 269.480469 234.132812 270.945312 C 234.722656 272.414062 235.269531 273.894531 235.777344 275.390625 C 236.289062 276.890625 236.757812 278.398438 237.183594 279.917969 C 237.613281 281.441406 238 282.972656 238.347656 284.515625 C 238.695312 286.058594 239 287.609375 239.265625 289.164062 C 239.527344 290.722656 239.75 292.289062 239.933594 293.859375 C 240.113281 295.429688 240.25 297.003906 240.347656 298.582031 C 240.445312 300.160156 240.5 301.738281 240.511719 303.320312 C 240.527344 304.898438 240.496094 306.480469 240.425781 308.058594 C 240.355469 309.636719 240.242188 311.214844 240.085938 312.785156 C 239.929688 314.359375 239.734375 315.925781 239.492188 317.488281 C 239.503906 318 239.5625 318.503906 239.671875 319.003906 C 239.78125 319.503906 239.9375 319.988281 240.140625 320.457031 C 240.34375 320.925781 240.585938 321.367188 240.875 321.789062 C 241.164062 322.210938 241.492188 322.601562 241.859375 322.957031 C 242.222656 323.316406 242.617188 323.632812 243.046875 323.914062 C 243.472656 324.195312 243.921875 324.429688 244.394531 324.625 C 244.867188 324.816406 245.355469 324.964844 245.855469 325.0625 C 246.355469 325.160156 246.863281 325.207031 247.371094 325.207031 C 247.882812 325.207031 248.390625 325.160156 248.890625 325.0625 C 249.390625 324.964844 249.878906 324.816406 250.351562 324.625 C 250.824219 324.429688 251.273438 324.195312 251.699219 323.914062 C 252.128906 323.632812 252.523438 323.316406 252.886719 322.957031 C 253.253906 322.601562 253.578125 322.210938 253.867188 321.789062 C 254.15625 321.367188 254.402344 320.925781 254.605469 320.457031 C 254.808594 319.988281 254.964844 319.503906 255.074219 319.003906 C 255.183594 318.503906 255.242188 318 255.253906 317.488281 L 255.253906 301.472656 C 255.25 299.800781 255.207031 298.128906 255.125 296.460938 C 255.039062 294.792969 254.914062 293.125 254.75 291.460938 C 254.585938 289.800781 254.378906 288.140625 254.132812 286.488281 C 253.886719 284.835938 253.597656 283.1875 253.269531 281.550781 C 252.945312 279.910156 252.574219 278.28125 252.167969 276.660156 C 251.761719 275.039062 251.316406 273.429688 250.828125 271.828125 C 250.34375 270.230469 249.816406 268.644531 249.253906 267.070312 C 248.6875 265.5 248.085938 263.941406 247.445312 262.394531 C 246.804688 260.851562 246.128906 259.324219 245.414062 257.816406 C 244.699219 256.304688 243.945312 254.8125 243.15625 253.339844 C 242.367188 251.863281 241.542969 250.410156 240.683594 248.976562 C 239.824219 247.542969 238.929688 246.132812 238 244.742188 C 237.074219 243.355469 236.109375 241.988281 235.113281 240.644531 C 234.117188 239.304688 233.089844 237.988281 232.03125 236.695312 C 230.96875 235.402344 229.878906 234.136719 228.753906 232.898438 C 227.632812 231.660156 226.480469 230.453125 225.300781 229.269531 C 224.117188 228.089844 222.90625 226.9375 221.667969 225.8125 C 220.429688 224.691406 219.164062 223.597656 217.875 222.539062 C 216.582031 221.480469 215.265625 220.449219 213.921875 219.453125 C 212.582031 218.457031 211.214844 217.496094 209.824219 216.566406 C 208.4375 215.636719 207.023438 214.742188 205.589844 213.882812 C 204.15625 213.023438 202.703125 212.199219 201.230469 211.410156 C 199.757812 210.625 198.265625 209.871094 196.753906 209.15625 C 195.246094 208.441406 193.71875 207.761719 192.171875 207.121094 C 190.628906 206.480469 189.070312 205.878906 187.496094 205.316406 C 185.925781 204.753906 184.339844 204.226562 182.738281 203.742188 C 181.140625 203.253906 179.53125 202.808594 177.910156 202.398438 C 176.289062 201.992188 174.660156 201.625 173.019531 201.296875 C 171.378906 200.972656 169.734375 200.683594 168.082031 200.4375 C 166.429688 200.191406 164.769531 199.984375 163.105469 199.820312 C 161.445312 199.652344 159.777344 199.527344 158.109375 199.445312 C 156.4375 199.363281 154.769531 199.320312 153.097656 199.316406 Z M 153.097656 199.316406 " fill-opacity="1" fill-rule="nonzero"/><path fill="#ffffff" d="M 268.570312 184.613281 C 270.046875 184.597656 271.515625 184.511719 272.984375 184.351562 C 274.449219 184.191406 275.90625 183.957031 277.351562 183.65625 C 278.792969 183.355469 280.21875 182.984375 281.628906 182.542969 C 283.035156 182.101562 284.421875 181.59375 285.777344 181.015625 C 287.136719 180.441406 288.464844 179.800781 289.761719 179.09375 C 291.054688 178.386719 292.316406 177.621094 293.535156 176.792969 C 294.757812 175.964844 295.933594 175.078125 297.070312 174.136719 C 298.203125 173.191406 299.289062 172.195312 300.328125 171.144531 C 301.367188 170.097656 302.351562 169 303.28125 167.855469 C 304.210938 166.710938 305.082031 165.523438 305.898438 164.292969 C 306.710938 163.0625 307.464844 161.792969 308.15625 160.488281 C 308.847656 159.1875 309.472656 157.851562 310.035156 156.488281 C 310.59375 155.121094 311.089844 153.734375 311.515625 152.320312 C 311.9375 150.90625 312.292969 149.476562 312.582031 148.03125 C 312.867188 146.582031 313.082031 145.125 313.226562 143.65625 C 313.367188 142.1875 313.441406 140.714844 313.441406 139.238281 C 313.441406 137.761719 313.367188 136.289062 313.226562 134.820312 C 313.082031 133.355469 312.867188 131.894531 312.582031 130.449219 C 312.292969 129 311.9375 127.570312 311.511719 126.15625 C 311.089844 124.742188 310.59375 123.355469 310.035156 121.988281 C 309.472656 120.625 308.847656 119.289062 308.15625 117.988281 C 307.464844 116.683594 306.710938 115.414062 305.898438 114.1875 C 305.082031 112.957031 304.210938 111.765625 303.28125 110.621094 C 302.347656 109.476562 301.363281 108.378906 300.328125 107.332031 C 299.289062 106.28125 298.203125 105.285156 297.070312 104.339844 C 295.933594 103.398438 294.757812 102.511719 293.535156 101.683594 C 292.3125 100.855469 291.054688 100.089844 289.757812 99.382812 C 288.464844 98.675781 287.136719 98.035156 285.777344 97.460938 C 284.417969 96.882812 283.035156 96.375 281.628906 95.933594 C 280.21875 95.492188 278.792969 95.121094 277.347656 94.820312 C 275.90625 94.519531 274.449219 94.285156 272.980469 94.128906 C 271.515625 93.96875 270.042969 93.878906 268.566406 93.863281 C 267.09375 93.878906 265.621094 93.96875 264.15625 94.128906 C 262.6875 94.289062 261.230469 94.519531 259.789062 94.820312 C 258.34375 95.121094 256.917969 95.492188 255.507812 95.933594 C 254.101562 96.375 252.71875 96.886719 251.359375 97.460938 C 250 98.035156 248.671875 98.679688 247.378906 99.382812 C 246.082031 100.089844 244.824219 100.855469 243.601562 101.683594 C 242.378906 102.511719 241.203125 103.398438 240.066406 104.34375 C 238.933594 105.285156 237.847656 106.28125 236.808594 107.332031 C 235.773438 108.378906 234.789062 109.476562 233.855469 110.621094 C 232.925781 111.769531 232.054688 112.957031 231.238281 114.1875 C 230.425781 115.417969 229.671875 116.683594 228.980469 117.988281 C 228.289062 119.289062 227.664062 120.625 227.101562 121.988281 C 226.542969 123.355469 226.050781 124.742188 225.625 126.15625 C 225.199219 127.570312 224.84375 129 224.558594 130.449219 C 224.269531 131.894531 224.054688 133.355469 223.914062 134.820312 C 223.769531 136.289062 223.699219 137.761719 223.699219 139.238281 C 223.699219 140.714844 223.769531 142.1875 223.914062 143.65625 C 224.054688 145.125 224.269531 146.582031 224.558594 148.03125 C 224.84375 149.476562 225.199219 150.90625 225.625 152.320312 C 226.050781 153.734375 226.542969 155.121094 227.101562 156.488281 C 227.664062 157.851562 228.289062 159.1875 228.980469 160.492188 C 229.671875 161.792969 230.425781 163.0625 231.238281 164.292969 C 232.054688 165.523438 232.925781 166.710938 233.859375 167.855469 C 234.789062 169 235.773438 170.097656 236.808594 171.148438 C 237.847656 172.195312 238.933594 173.191406 240.070312 174.136719 C 241.203125 175.078125 242.382812 175.964844 243.601562 176.792969 C 244.824219 177.621094 246.082031 178.386719 247.378906 179.09375 C 248.675781 179.800781 250 180.441406 251.359375 181.015625 C 252.71875 181.59375 254.101562 182.101562 255.511719 182.542969 C 256.917969 182.984375 258.34375 183.355469 259.789062 183.65625 C 261.234375 183.960938 262.6875 184.191406 264.15625 184.351562 C 265.621094 184.511719 267.09375 184.597656 268.570312 184.613281 Z M 268.570312 109.617188 C 269.53125 109.632812 270.488281 109.691406 271.445312 109.800781 C 272.398438 109.90625 273.347656 110.0625 274.285156 110.261719 C 275.226562 110.460938 276.15625 110.707031 277.070312 110.996094 C 277.988281 111.285156 278.886719 111.617188 279.773438 111.996094 C 280.65625 112.375 281.519531 112.792969 282.363281 113.253906 C 283.207031 113.714844 284.023438 114.21875 284.820312 114.757812 C 285.613281 115.300781 286.378906 115.878906 287.117188 116.496094 C 287.855469 117.109375 288.5625 117.761719 289.234375 118.445312 C 289.910156 119.128906 290.550781 119.847656 291.15625 120.59375 C 291.761719 121.339844 292.328125 122.113281 292.855469 122.917969 C 293.386719 123.71875 293.875 124.542969 294.324219 125.394531 C 294.773438 126.242188 295.179688 127.113281 295.546875 128.003906 C 295.910156 128.890625 296.230469 129.796875 296.507812 130.71875 C 296.785156 131.636719 297.015625 132.570312 297.199219 133.511719 C 297.386719 134.457031 297.527344 135.40625 297.621094 136.363281 C 297.710938 137.320312 297.757812 138.277344 297.757812 139.238281 C 297.757812 140.199219 297.710938 141.160156 297.621094 142.117188 C 297.527344 143.074219 297.386719 144.023438 297.199219 144.964844 C 297.015625 145.910156 296.785156 146.839844 296.507812 147.761719 C 296.230469 148.679688 295.910156 149.585938 295.546875 150.476562 C 295.179688 151.363281 294.773438 152.234375 294.324219 153.085938 C 293.875 153.933594 293.386719 154.757812 292.855469 155.5625 C 292.328125 156.363281 291.757812 157.136719 291.15625 157.886719 C 290.550781 158.632812 289.910156 159.347656 289.234375 160.03125 C 288.558594 160.71875 287.855469 161.367188 287.117188 161.984375 C 286.378906 162.597656 285.613281 163.175781 284.816406 163.71875 C 284.023438 164.257812 283.203125 164.761719 282.363281 165.222656 C 281.519531 165.683594 280.65625 166.105469 279.769531 166.480469 C 278.886719 166.859375 277.988281 167.191406 277.070312 167.480469 C 276.152344 167.773438 275.226562 168.015625 274.285156 168.214844 C 273.34375 168.414062 272.398438 168.570312 271.441406 168.675781 C 270.488281 168.785156 269.527344 168.84375 268.566406 168.859375 C 267.605469 168.84375 266.648438 168.785156 265.695312 168.675781 C 264.738281 168.570312 263.789062 168.414062 262.851562 168.214844 C 261.910156 168.015625 260.980469 167.773438 260.066406 167.480469 C 259.148438 167.191406 258.25 166.859375 257.367188 166.480469 C 256.480469 166.101562 255.617188 165.683594 254.773438 165.222656 C 253.933594 164.761719 253.113281 164.257812 252.320312 163.71875 C 251.523438 163.175781 250.757812 162.597656 250.019531 161.980469 C 249.28125 161.367188 248.574219 160.714844 247.902344 160.03125 C 247.226562 159.347656 246.585938 158.632812 245.980469 157.882812 C 245.378906 157.136719 244.808594 156.363281 244.28125 155.5625 C 243.75 154.757812 243.261719 153.933594 242.8125 153.082031 C 242.363281 152.234375 241.957031 151.363281 241.589844 150.472656 C 241.226562 149.585938 240.90625 148.679688 240.628906 147.757812 C 240.351562 146.839844 240.121094 145.90625 239.9375 144.964844 C 239.75 144.019531 239.609375 143.070312 239.519531 142.113281 C 239.425781 141.15625 239.378906 140.199219 239.378906 139.238281 C 239.378906 138.277344 239.425781 137.316406 239.519531 136.359375 C 239.609375 135.40625 239.75 134.453125 239.9375 133.511719 C 240.121094 132.570312 240.351562 131.636719 240.628906 130.714844 C 240.90625 129.796875 241.226562 128.890625 241.589844 128 C 241.957031 127.113281 242.363281 126.242188 242.8125 125.394531 C 243.261719 124.542969 243.75 123.71875 244.28125 122.914062 C 244.808594 122.113281 245.378906 121.339844 245.984375 120.59375 C 246.585938 119.84375 247.226562 119.128906 247.902344 118.445312 C 248.578125 117.761719 249.285156 117.109375 250.019531 116.492188 C 250.757812 115.878906 251.527344 115.300781 252.320312 114.757812 C 253.113281 114.21875 253.933594 113.714844 254.777344 113.253906 C 255.617188 112.792969 256.484375 112.375 257.367188 111.996094 C 258.25 111.617188 259.152344 111.285156 260.066406 110.996094 C 260.984375 110.703125 261.910156 110.460938 262.851562 110.261719 C 263.792969 110.0625 264.738281 109.90625 265.695312 109.800781 C 266.648438 109.691406 267.609375 109.632812 268.570312 109.617188 Z M 268.570312 109.617188 " fill-opacity="1" fill-rule="nonzero"/><path fill="#ffffff" d="M 289.894531 199.316406 L 231.070312 199.316406 C 230.554688 199.316406 230.042969 199.367188 229.535156 199.46875 C 229.027344 199.570312 228.535156 199.71875 228.054688 199.917969 C 227.578125 200.113281 227.125 200.359375 226.695312 200.644531 C 226.265625 200.933594 225.867188 201.257812 225.5 201.625 C 225.136719 201.992188 224.808594 202.386719 224.519531 202.820312 C 224.234375 203.25 223.992188 203.703125 223.792969 204.179688 C 223.59375 204.660156 223.445312 205.152344 223.34375 205.660156 C 223.242188 206.164062 223.191406 206.679688 223.191406 207.195312 C 223.191406 207.710938 223.242188 208.226562 223.34375 208.730469 C 223.445312 209.238281 223.59375 209.730469 223.792969 210.210938 C 223.992188 210.6875 224.234375 211.140625 224.519531 211.570312 C 224.808594 212.003906 225.136719 212.398438 225.5 212.765625 C 225.867188 213.132812 226.265625 213.457031 226.695312 213.746094 C 227.125 214.03125 227.578125 214.277344 228.054688 214.472656 C 228.535156 214.671875 229.027344 214.820312 229.535156 214.921875 C 230.042969 215.023438 230.554688 215.074219 231.070312 215.074219 L 289.894531 215.074219 C 333.3125 215.433594 359.277344 253.242188 354.621094 294.476562 C 354.621094 294.996094 354.671875 295.507812 354.773438 296.011719 C 354.875 296.519531 355.027344 297.011719 355.222656 297.488281 C 355.421875 297.964844 355.664062 298.417969 355.953125 298.847656 C 356.242188 299.277344 356.566406 299.675781 356.933594 300.039062 C 357.296875 300.40625 357.695312 300.730469 358.125 301.015625 C 358.554688 301.304688 359.007812 301.546875 359.488281 301.742188 C 359.964844 301.941406 360.457031 302.089844 360.964844 302.191406 C 361.46875 302.292969 361.980469 302.34375 362.5 302.34375 C 363.015625 302.34375 363.527344 302.292969 364.035156 302.191406 C 364.539062 302.089844 365.03125 301.941406 365.511719 301.742188 C 365.988281 301.546875 366.441406 301.304688 366.871094 301.015625 C 367.300781 300.730469 367.699219 300.40625 368.066406 300.039062 C 368.429688 299.675781 368.757812 299.277344 369.042969 298.847656 C 369.332031 298.417969 369.574219 297.964844 369.773438 297.488281 C 369.972656 297.011719 370.121094 296.519531 370.222656 296.011719 C 370.324219 295.507812 370.375 294.996094 370.378906 294.476562 C 370.597656 293.023438 370.777344 291.566406 370.917969 290.105469 C 371.058594 288.640625 371.164062 287.175781 371.226562 285.707031 C 371.289062 284.238281 371.316406 282.769531 371.300781 281.296875 C 371.285156 279.828125 371.230469 278.359375 371.136719 276.894531 C 371.046875 275.425781 370.914062 273.960938 370.742188 272.503906 C 370.574219 271.042969 370.363281 269.589844 370.113281 268.140625 C 369.867188 266.691406 369.578125 265.25 369.253906 263.816406 C 368.929688 262.382812 368.566406 260.957031 368.167969 259.542969 C 367.765625 258.128906 367.328125 256.726562 366.851562 255.335938 C 366.375 253.945312 365.863281 252.566406 365.316406 251.203125 C 364.765625 249.839844 364.183594 248.492188 363.5625 247.160156 C 362.941406 245.828125 362.285156 244.511719 361.59375 243.214844 C 360.902344 241.917969 360.179688 240.640625 359.421875 239.378906 C 358.660156 238.121094 357.871094 236.882812 357.046875 235.667969 C 356.222656 234.449219 355.363281 233.253906 354.476562 232.085938 C 353.589844 230.914062 352.667969 229.765625 351.71875 228.644531 C 350.769531 227.519531 349.792969 226.425781 348.785156 225.355469 C 347.777344 224.285156 346.742188 223.242188 345.679688 222.226562 C 344.617188 221.210938 343.527344 220.226562 342.410156 219.269531 C 341.296875 218.3125 340.15625 217.382812 338.988281 216.488281 C 337.824219 215.589844 336.636719 214.726562 335.425781 213.894531 C 334.214844 213.058594 332.984375 212.261719 331.730469 211.492188 C 330.476562 210.726562 329.203125 209.992188 327.910156 209.292969 C 326.617188 208.59375 325.304688 207.925781 323.976562 207.296875 C 322.648438 206.667969 321.304688 206.074219 319.945312 205.515625 C 318.585938 204.957031 317.214844 204.433594 315.824219 203.949219 C 314.4375 203.464844 313.039062 203.015625 311.628906 202.605469 C 310.214844 202.195312 308.792969 201.820312 307.363281 201.484375 C 305.933594 201.152344 304.492188 200.855469 303.046875 200.59375 C 301.597656 200.335938 300.144531 200.117188 298.6875 199.9375 C 297.230469 199.753906 295.765625 199.613281 294.300781 199.507812 C 292.832031 199.40625 291.367188 199.34375 289.894531 199.316406 Z M 289.894531 199.316406 " fill-opacity="1" fill-rule="nonzero"/></svg>